<?xml version="1.0" encoding="utf-8" ?>
<svg baseProfile="full" height="200mm" version="1.1" viewBox="0,0,200,200" width="200mm" xmlns="http://www.w3.org/2000/svg" xmlns:ev="http://www.w3.org/2001/xml-events" xmlns:xlink="http://www.w3.org/1999/xlink"><defs /><rect fill="#1a1a1a" height="200" width="200" x="0" y="0" /><text alignment-baseline="middle" fill="#e1ed5e" style="dominant-baseline: central; font-size:9.0px; font-family:Arial;" text-anchor="middle" x="100.0" y="100.0">2024</text><line stroke="#e1ed5e" stroke-width="0.3" x1="100.0" x2="100.0" y1="15.0" y2="10.0" /><path d="M 100.0 14.0 a86.0,86.0 0 0,1 42.35913384403234,11.155469271406648" fill="none" id="id97" stroke="none" /><text fill="#e1ed5e" style="font-size:6.75px; font-family:Arial;" text-anchor="middle"><textPath startOffset="22.145653131862478" xlink:href="#id97">January</textPath></text><path d="M 100.0 79.0 l 0.0 -4.769954117690851 a25.76995411769085,25.76995411769085 0 0,0 0.44237553014796016,0.003797261880593003 l -0.0818826052991054 4.769251254004693" fill="#ff1702" stroke="none" /><path d="M 100.36049292484886 79.00309439819443 l 0.14283058741129348 -8.319165659583389 a29.320391688393748,29.320391688393748 0 0,0 0.5031751805108573,0.0129600077647171 l -0.28561908199289215 8.315487934468626" fill="#ff4b07" stroke="none" /><path d="M 101.44090949804482 79.04949213459386 l 0.616420863096655 -8.962624063642094 a29.983796791259092,29.983796791259092 0 0,0 0.5131955343398754,0.03972458003330349 l -0.770185392211764 8.950721716613737" fill="#ff5507" stroke="none" /><path d="M 101.80034050326958 79.07731436759882 l 0.7130158612914258 -8.28632510884661 a29.316945077848892,29.316945077848892 0 0,0 0.5010411613646458,0.04744911891176331 l -0.8551565860410846 8.272864234429662" fill="#ff4b07" stroke="none" /><path d="M 102.15924093988457 79.11130261209362 l 0.864108671231276 -8.359467537967738 a29.404009835431744,29.404009835431744 0 0,0 0.5016381463339172,0.056209600613759826 l -1.0074827191659899 8.343402176847007" fill="#ff4c07" stroke="none" /><path d="M 102.51750503828377 79.15144685158666 l 0.9924338796982631 -8.21877619807291 a29.27847855584483,29.27847855584483 0 0,0 0.4984621630956853,0.06453590657290295 l -1.1333738646847402 8.200528695299608" fill="#ff4a06" stroke="none" /><line stroke="#e1ed5e" stroke-width="0.3" x1="143.13028292997686" x2="145.6673583964461" y1="26.7553504044142" y2="22.446841604673864" /><path d="M 143.63769802327073 25.89364864446614 a86.0,86.0 0 0,1 29.32050498858742,28.57503671076993" fill="none" id="id98" stroke="none" /><text fill="#e1ed5e" style="font-size:6.75px; font-family:Arial;" text-anchor="middle"><textPath startOffset="20.669276256404974" xlink:href="#id98">February</textPath></text><line stroke="#e1ed5e" stroke-width="0.3" x1="172.87174338648825" x2="177.1583165268699" y1="56.24261187166439" y2="53.66864786411523" /><path d="M 173.72905801456457 55.72781907015455 a86.0,86.0 0 0,1 12.242430191666344,42.057860355516425" fill="none" id="id99" stroke="none" /><text fill="#e1ed5e" style="font-size:6.75px; font-family:Arial;" text-anchor="middle"><textPath startOffset="22.145653131862474" xlink:href="#id99">March</textPath></text><path d="M 118.36410011445183 89.81374322990088 l 7.199999890376333 -3.993718568890957 a29.233455315292822,29.233455315292822 0 0,0 0.23965120377808471,0.44093122247405564 l -7.267496443769758 3.869532512942298" fill="#ff4a06" stroke="none" /><path d="M 118.53625476483649 90.13048839642627 l 9.112968118535179 -4.852142233149422 a31.32421775148853,31.32421775148853 0 0,0 0.24864258784975915,0.4768049469560036 l -9.194918775359882 4.69499104308892" fill="#ff6809" stroke="none" /><path d="M 118.70294669586156 90.45014215332178 l 5.570418063383361 -2.844295153963662 a27.25456411940343,27.25456411940343 0 0,0 0.20918538143532017,0.41851089060238433 l -5.618423358030418 2.748252407197527" fill="#ff2d04" stroke="none" /><path d="M 120.86939407059847 97.66154086499901 l 8.308304848843814 -0.9309628877784967 a29.36030031516467,29.36030031516467 0 0,0 0.05182457565252096,0.5013557579730036 l -8.323061816978 0.7882026075225617" fill="#ff4c07" stroke="none" /><path d="M 120.9064616781168 98.02013634271609 l 10.534922531811056 -0.9976681168801665 a31.58205719237519,31.58205719237519 0 0,0 0.04648033216995603,0.5401719154323458 l -10.550496486678751 0.8166751540721588" fill="#ff6b09" stroke="none" /><line stroke="#e1ed5e" stroke-width="0.3" x1="184.99686870605535" x2="189.99668451229388" y1="99.2704041080226" y2="99.22748670261217" /><path d="M 185.99683186730306 99.26182062694052 a86.0,86.0 0 0,1 -10.086455211305974,41.156179273409016" fill="none" id="id100" stroke="none" /><text fill="#e1ed5e" style="font-size:6.75px; font-family:Arial;" text-anchor="middle"><textPath startOffset="21.40746469413373" xlink:href="#id100">April</textPath></text><path d="M 120.99922638620191 99.81974689727618 l 7.851544734797897 -0.06739606848337015 a28.85183398656515,28.85183398656515 0 0,0 0.0,0.4952983424143931 l -7.851544734797897 -0.0673960684833692" fill="#ff4406" stroke="none" /><path d="M 120.99922638620191 100.18025310272382 l 8.146070448844096 0.0699242175119287 a29.146370550970886,29.146370550970886 0 0,0 -0.008589252752630547,0.5002809120669381 l -8.143669764492797 -0.20975204554793794" fill="#ff4906" stroke="none" /><path d="M 120.77682067341334 103.0534771498775 l 3.2180701411042163 0.4729454904108012 a24.25263783258549,24.25263783258549 0 0,0 -0.06407143612680212,0.4113845816811124 l -3.2094772128391464 -0.5281182540233642" fill="#ff0000" stroke="none" /><path d="M 120.7213421655516 103.40968896794604 l 8.258268256961948 1.3588948990434528 a29.369324342537553,29.369324342537553 0 0,0 -0.08612929522690192,0.49677088689925286 l -8.23372414424281 -1.5004588188632937" fill="#ff4c07" stroke="none" /><path d="M 120.43855184770803 104.8234425847677 l 6.3522637940017175 1.4991169590668383 a27.526760832568243,27.526760832568243 0 0,0 -0.11248283019223942,0.45896833204426996 l -6.325593437293183 -1.6079411157192078" fill="#ff3104" stroke="none" /><path d="M 120.35273937422433 105.17358676015961 l 8.565149223620958 2.1772274388889508 a29.837539281018536,29.837539281018536 0 0,0 -0.13044761775712221,0.49533085213835015 l -8.526512125059105 -2.323938795400104" fill="#ff5307" stroke="none" /><path d="M 120.26092885502905 105.52220625578681 l 10.316982254052103 2.811939390924152 a31.693321559209604,31.693321559209604 0 0,0 -0.14757241777260702,0.5236824498209371 l -10.267191344204917 -2.9886297646480977" fill="#ff6d0a" stroke="none" /><path d="M 120.16314734710363 105.8691983318838 l 8.720250827179425 2.5383379254946394 a30.082176716675793,30.082176716675793 0 0,0 -0.1485825748264163,0.4945830677336584 l -8.67539193234938 -2.687658596819021" fill="#ff5608" stroke="none" /><path d="M 119.58574465831526 107.57618678355244 l 7.712157585004735 2.9832282298942507 a29.269040167249404,29.269040167249404 0 0,0 -0.1852888086811363,0.4670488374847908 l -7.659810101357474 -3.115178084592606" fill="#ff4a06" stroke="none" /><line stroke="#e1ed5e" stroke-width="0.3" x1="174.33088141563837" x2="178.70328620479359" y1="141.23008692659167" y2="143.65538615756765" /><path d="M 175.20536237346943 141.71514677278685 a86.0,86.0 0 0,1 -30.301960400862466,31.631185727798858" fill="none" id="id101" stroke="none" /><text fill="#e1ed5e" style="font-size:6.75px; font-family:Arial;" text-anchor="middle"><textPath startOffset="22.145653131862474" xlink:href="#id101">May</textPath></text><path d="M 118.00360718960297 110.81064883170644 l 10.826968131731391 6.501283279043038 a33.628931989677184,33.628931989677184 0 0,0 -0.30143058674322354,0.4923642100570136 l -10.713769580532762 -6.686184605224609" fill="#ff880c" stroke="none" /><path d="M 115.6541949942343 113.99807769240083 l 6.467423081834979 5.7832095998865904 a29.676005682090825,29.676005682090825 0 0,0 -0.34283177182403196,0.37683217252145945 l -6.367193609169067 -5.8933793479657215" fill="#ff5007" stroke="none" /><path d="M 115.41159269507618 114.26474011684316 l 8.729322017737534 8.079730138407172 a32.8946669561969,32.8946669561969 0 0,0 -0.3871297637815563,0.4111183935683538 l -8.589336420219716 -8.228389991920022" fill="#ff7e0b" stroke="none" /><path d="M 114.39649973595853 115.28858382429668 l 39.03291459915426 41.451602660419255 a77.93684031646072,77.93684031646072 0 0,0 -0.9818936983615633,0.9088261483817013 l -38.31559112947873 -42.11554655493334" fill="#45fff1" stroke="none" /><path d="M 111.8722381534696 117.32195027204791 l 4.333953387706409 6.323367514429827 a28.666037352463025,28.666037352463025 0 0,0 -0.4082913417938877,0.27471663622256776 l -4.224765757815518 -6.396833824709516" fill="#ff4206" stroke="none" /><line stroke="#e1ed5e" stroke-width="0.3" x1="143.1302829299769" x2="145.66735839644613" y1="173.24464959558577" y2="177.55315839532614" /><path d="M 143.63769802327073 174.10635135553383 a86.0,86.0 0 0,1 -40.68552437913181,11.842963189579606" fill="none" id="id102" stroke="none" /><text fill="#e1ed5e" style="font-size:6.75px; font-family:Arial;" text-anchor="middle"><textPath startOffset="21.407464694133747" xlink:href="#id102">June</textPath></text><path d="M 109.3889696526874 118.78422872680471 l 3.502977848898743 7.0083022496307965 a28.83499548385673,28.83499548385673 0 0,0 -0.4446627500010247,0.21750683336005913 l -3.382154849635649 -7.06740283308808" fill="#ff4406" stroke="none" /><path d="M 103.58742460773223 120.69131181640829 l 2.455727406191617 14.163983094750218 a35.37529179536508,35.37529179536508 0 0,0 -0.5992279584606396,0.0986027325317137 l -2.212221944677905 -14.204051825777603" fill="#ffa00e" stroke="none" /><path d="M 102.875027216393 120.80226474461374 l 1.0343337614160137 7.483923844819335 a28.555062041112595,28.555062041112595 0 0,0 -0.48614609414202936,0.06294134487056198 l -0.9057098453832091 -7.500576785890292" fill="#ff4006" stroke="none" /><path d="M 102.51750503828377 120.84855314841334 l 1.0616370490445277 8.791877714142911 a29.855743162736076,29.855743162736076 0 0,0 -0.5093448050588448,0.05707314779844021 l -0.9105563423848836 -8.808806622448323" fill="#ff5307" stroke="none" /><path d="M 101.80034050326958 120.92268563240118 l 0.304168882631039 3.5349034801418457 a24.547965800720174,24.547965800720174 0 0,0 -0.42015714399885645,0.03252282020500434 l -0.2434427438569467 -3.539604067341904" fill="#ff0400" stroke="none" /><path d="M 100.72087961077811 120.9876233191556 l 0.23278785822264753 6.7773644983194705 a27.781361200379834,27.781361200379834 0 0,0 -0.4767634616004052,0.012279735574400758 l -0.11641108255149843 -6.780361951243917" fill="#ff3505" stroke="none" /><line stroke="#e1ed5e" stroke-width="0.3" x1="101.45913802915013" x2="101.54496967792366" y1="184.9874750549273" y2="189.98673829345242" /><path d="M 101.47630435890484 185.9873277026323 a86.0,86.0 0 0,1 -42.54439059252881,-10.42667462771756" fill="none" id="id103" stroke="none" /><text fill="#e1ed5e" style="font-size:6.75px; font-family:Arial;" text-anchor="middle"><textPath startOffset="22.145653131862474" xlink:href="#id103">July</textPath></text><path d="M 100.36049292484886 120.99690560180557 l 0.11809218412921897 6.878277690226156 a27.879291369597254,27.879291369597254 0 0,0 -0.4785851089780704,0.004108077565533645 l -8.424702156179289e-16 -6.879291369597254" fill="#ff3605" stroke="none" /><path d="M 97.84075906011543 120.88869738790638 l -0.8100765166323913 7.836755456242844 a28.87851255274441,28.87851255274441 0 0,0 -0.492673060134237,-0.055205044005705715 l 0.9444854783674276 -7.8216946517301675" fill="#ff4506" stroke="none" /><path d="M 95.35216902796893 120.47920084513623 l -1.2934245669776245 5.6990672949521874 a26.843998215507504,26.843998215507504 0 0,0 -0.44850932566121005,-0.1058469796284671 l 1.3910660463787226 -5.676024171677493" fill="#ff2703" stroke="none" /><line stroke="#e1ed5e" stroke-width="0.3" x1="58.13341422392154" x2="55.67067388415222" y1="173.97424548756322" y2="178.32567169271397" /><path d="M 57.64086615596768 174.84453072859336 a86.0,86.0 0 0,1 -31.369924170532247,-30.572349798747897" fill="none" id="id104" stroke="none" /><text fill="#e1ed5e" style="font-size:6.75px; font-family:Arial;" text-anchor="middle"><textPath startOffset="22.145653131862474" xlink:href="#id104">August</textPath></text><path d="M 83.20337586046588 112.60449989151573 l -50.38987241860234 37.813499674547174 a84.0,84.0 0 0,0 -0.8555919216646783,-1.1607747629244813 l 51.03156635985085 -36.942918602353814" fill="#4dd2ff" stroke="none" /><line stroke="#e1ed5e" stroke-width="0.3" x1="26.387840678322732" x2="22.057713659400548" y1="142.50000000000003" y2="145.00000000000006" /><path d="M 25.521815274538298 143.00000000000003 a86.0,86.0 0 0,1 -11.493303480769221,-40.785679425670985" fill="none" id="id105" stroke="none" /><text fill="#e1ed5e" style="font-size:6.75px; font-family:Arial;" text-anchor="middle"><textPath startOffset="21.40746469413373" xlink:href="#id105">September</textPath></text><path d="M 80.5471966667186 107.91128576633889 l -7.799447191410173 3.1719672734853446 a29.419783422134923,29.419783422134923 0 0,0 -0.18624309477848872,-0.46945426183593464 l 7.852748961154786 -3.0376119944358444" fill="#ff4d07" stroke="none" /><path d="M 80.41425534168474 107.57618678355246 l -4.985801763454518 1.9286152293249537 a26.34581854604609,26.34581854604609 0 0,0 -0.1595418918499825,-0.42320382284908187 l 5.018174339118937 -1.8427431262817269" fill="#ff1f03" stroke="none" /><path d="M 79.83685265289637 105.86919833188381 l -7.896942119848527 2.298684759820285 a29.224697348186606,29.224697348186606 0 0,0 -0.13607785596999306,-0.482892305054947 l 7.935238467893095 -2.162784530862343" fill="#ff4a06" stroke="none" /><path d="M 79.73907114497094 105.5222062557868 l -8.502552916987815 2.3174086066984065 a29.812706097254,29.812706097254 0 0,0 -0.13033904882880018,-0.49491859823364576 l 8.541081446621348 -2.171109504091958" fill="#ff5207" stroke="none" /><path d="M 79.2786578344484 103.40968896794605 l -8.184709912828106 1.3467909015084663 a29.294776795642704,29.294776795642704 0 0,0 -0.07739192879832199,-0.49691170010896474 l 8.206623333764696 -1.2060910194680514" fill="#ff4b06" stroke="none" /><path d="M 79.13060592940153 102.33845913500099 l -5.101638893639502 0.5716492790327324 a26.133566235991694,26.133566235991694 0 0,0 -0.04612898934714874,-0.4462561270879093 l 5.110700275468317 -0.4839886296618917" fill="#ff1c02" stroke="none" /><line stroke="#e1ed5e" stroke-width="0.3" x1="15.003131293944662" x2="10.003315487706104" y1="100.72959589197737" y2="100.7725132973878" /><path d="M 14.003168132696942 100.73817937305945 a86.0,86.0 0 0,1 10.791469493833604,-42.45332614584628" fill="none" id="id106" stroke="none" /><text fill="#e1ed5e" style="font-size:6.75px; font-family:Arial;" text-anchor="middle"><textPath startOffset="22.145653131862435" xlink:href="#id106">October</textPath></text><line stroke="#e1ed5e" stroke-width="0.3" x1="26.387840678322718" x2="22.05771365940052" y1="57.49999999999999" y2="54.99999999999999" /><path d="M 25.521815274538284 56.99999999999999 a86.0,86.0 0 0,1 29.574782752854787,-30.34633250058573" fill="none" id="id107" stroke="none" /><text fill="#e1ed5e" style="font-size:6.75px; font-family:Arial;" text-anchor="middle"><textPath startOffset="21.40746469413373" xlink:href="#id107">November</textPath></text><line stroke="#e1ed5e" stroke-width="0.3" x1="56.869717070023135" x2="54.33264160355391" y1="26.7553504044142" y2="22.446841604673864" /><path d="M 56.362301976729285 25.89364864446614 a86.0,86.0 0 0,1 42.16139366436587,-11.88097634709845" fill="none" id="id108" stroke="none" /><text fill="#e1ed5e" style="font-size:6.75px; font-family:Arial;" text-anchor="middle"><textPath startOffset="22.145653131862474" xlink:href="#id108">December</textPath></text></svg>