<?xml version="1.0" encoding="utf-8" ?>
<svg baseProfile="full" height="200mm" version="1.1" viewBox="0,0,200,200" width="200mm" xmlns="http://www.w3.org/2000/svg" xmlns:ev="http://www.w3.org/2001/xml-events" xmlns:xlink="http://www.w3.org/1999/xlink"><defs /><rect fill="#1a1a1a" height="200" width="200" x="0" y="0" /><text alignment-baseline="middle" fill="#e1ed5e" style="dominant-baseline: central; font-size:9.0px; font-family:Arial;" text-anchor="middle" x="100.0" y="100.0">2022</text><line stroke="#e1ed5e" stroke-width="0.3" x1="100.0" x2="100.0" y1="15.0" y2="10.0" /><path d="M 100.0 14.0 a86.0,86.0 0 0,1 42.46469731375804,11.215312516191453" fill="none" id="id73" stroke="none" /><text fill="#e1ed5e" style="font-size:6.75px; font-family:Arial;" text-anchor="middle"><textPath startOffset="22.20632615414155" xlink:href="#id73">January</textPath></text><line stroke="#e1ed5e" stroke-width="0.3" x1="143.23703022742887" x2="145.7803849466894" y1="26.81831364943548" y2="22.513508569990506" /><path d="M 143.74570117128098 25.957352633546492 a86.0,86.0 0 0,1 28.547481713284135,27.462654790039103" fill="none" id="id74" stroke="none" /><text fill="#e1ed5e" style="font-size:6.75px; font-family:Arial;" text-anchor="middle"><textPath startOffset="19.985693538727396" xlink:href="#id74">February</textPath></text><line stroke="#e1ed5e" stroke-width="0.3" x1="172.23445277983987" x2="176.4835382374775" y1="55.19839476539836" y2="52.563006222186495" /><path d="M 173.08426987136738 54.67131705675599 a86.0,86.0 0 0,1 12.851231095245387,41.99856678651699" fill="none" id="id75" stroke="none" /><text fill="#e1ed5e" style="font-size:6.75px; font-family:Arial;" text-anchor="middle"><textPath startOffset="22.20632615414155" xlink:href="#id75">March</textPath></text><line stroke="#e1ed5e" stroke-width="0.3" x1="184.98032266829074" x2="189.97916517819016" y1="98.17113171792111" y2="98.06355123074" /><path d="M 185.9800911702706 98.14961562048488 a86.0,86.0 0 0,1 -9.607161424134198,41.387399972396054" fill="none" id="id76" stroke="none" /><text fill="#e1ed5e" style="font-size:6.75px; font-family:Arial;" text-anchor="middle"><textPath startOffset="21.466115282336823" xlink:href="#id76">April</textPath></text><path d="M 120.9764740272857 100.99374915477107 l 7.116617532048438 0.3371459210972639 a28.124599109393575,28.124599109393575 0 0,0 -0.02707146561077084,0.48337920406227164 l -7.109759715550138 -0.4595968414949589" fill="#ff0000" stroke="none" /><line stroke="#e1ed5e" stroke-width="0.3" x1="174.80103733775053" x2="179.2010983576182" y1="140.37084112569926" y2="142.7455964860345" /><path d="M 175.68104954172406 140.8457921977663 a86.0,86.0 0 0,1 -30.038265399797805,32.042727171017184" fill="none" id="id77" stroke="none" /><text fill="#e1ed5e" style="font-size:6.75px; font-family:Arial;" text-anchor="middle"><textPath startOffset="22.206326154141568" xlink:href="#id77">May</textPath></text><path d="M 118.12598468904814 110.60418214915192 l 14.962008319217952 8.753171993462908 a38.334350662528166,38.334350662528166 0 0,0 -0.3381073743043119,0.566687407233861 l -14.809120069215414 -9.009421494582874" fill="#ff9d0e" stroke="none" /><path d="M 116.93607887273984 112.41649034213515 l 13.42364746797306 9.841391882662537 a37.64473807341394,37.64473807341394 0 0,0 -0.3876309750757177,0.5192950368625401 l -13.25225522620225 -10.070999799034391" fill="#ff930d" stroke="none" /><path d="M 112.63410532772338 116.77436683061366 l 5.2262616841275245 6.93893460346299 a29.686922620935192,29.686922620935192 0 0,0 -0.41083170931737495,0.3039234769539699 l -5.106045004391585 -7.027868029156729" fill="#ff1902" stroke="none" /><line stroke="#e1ed5e" stroke-width="0.3" x1="143.8653032363475" x2="146.44561519142675" y1="172.8068346515853" y2="177.08958963109032" /><path d="M 144.38136562736335 173.6633856474863 a86.0,86.0 0 0,1 -40.68145358897372,12.25698825130547" fill="none" id="id78" stroke="none" /><text fill="#e1ed5e" style="font-size:6.75px; font-family:Arial;" text-anchor="middle"><textPath startOffset="21.466115282336833" xlink:href="#id78">June</textPath></text><path d="M 106.91757812671514 119.82793768551818 l 7.36098362886693 21.098876228608624 a43.346065830355755,43.346065830355755 0 0,0 -0.7066033472298203,0.23971821977404037 l -6.996710548699882 -21.222457435280788" fill="#ffe415" stroke="none" /><path d="M 105.88484417918355 120.15858648285463 l 4.952486804375713 16.964787938540635 a38.67289323645592,38.67289323645592 0 0,0 -0.6406235331514863,0.18104660948412415 l -4.659732103119621 -17.047523341363277" fill="#ffa20f" stroke="none" /><line stroke="#e1ed5e" stroke-width="0.3" x1="102.19456741930631" x2="102.32365962044197" y1="184.97166512339345" y2="189.96999836594603" /><path d="M 102.22038585953345 185.97133177190398 a86.0,86.0 0 0,1 -42.740103519485714,-10.115201625700543" fill="none" id="id79" stroke="none" /><text fill="#e1ed5e" style="font-size:6.75px; font-family:Arial;" text-anchor="middle"><textPath startOffset="22.20632615414155" xlink:href="#id79">July</textPath></text><path d="M 97.2962882734958 120.8252237178851 l -2.5562737531900446 19.689589046229955 a40.854834482076825,40.854834482076825 0 0,0 -0.6966165780869563,-0.09654471013813191 l 2.894818922463832 -19.642669770599216" fill="#ffc212" stroke="none" /><path d="M 96.93821686468263 120.77559828337769 l -1.72134713118906 11.68012720800414 a32.80628678040693,32.80628678040693 0 0,0 -0.5579632898159695,-0.0871423907746365 l 1.9221462846135466 -11.648766509882398" fill="#ff4a06" stroke="none" /><line stroke="#e1ed5e" stroke-width="0.3" x1="58.666819895761336" x2="56.23545636021788" y1="174.27360380694188" y2="178.64263932499728" /><path d="M 58.180547188652646 175.14741091055294 a86.0,86.0 0 0,1 -31.652253787137756,-30.449443065178592" fill="none" id="id80" stroke="none" /><text fill="#e1ed5e" style="font-size:6.75px; font-family:Arial;" text-anchor="middle"><textPath startOffset="22.20632615414155" xlink:href="#id80">August</textPath></text><line stroke="#e1ed5e" stroke-width="0.3" x1="26.63291911575756" x2="22.317208475507996" y1="142.92168965132927" y2="145.44649492493687" /><path d="M 25.769776987707644 143.4266507060508 a86.0,86.0 0 0,1 -11.730757126820373,-40.83630448921669" fill="none" id="id81" stroke="none" /><text fill="#e1ed5e" style="font-size:6.75px; font-family:Arial;" text-anchor="middle"><textPath startOffset="21.46611528233685" xlink:href="#id81">September</textPath></text><line stroke="#e1ed5e" stroke-width="0.3" x1="15.007084014347285" x2="10.007500721073583" y1="101.09737516637583" y2="101.16192664675087" /><path d="M 14.007167355692545 101.11028546245083 a86.0,86.0 0 0,1 10.666146001902534,-42.60595125391555" fill="none" id="id82" stroke="none" /><text fill="#e1ed5e" style="font-size:6.75px; font-family:Arial;" text-anchor="middle"><textPath startOffset="22.20632615414155" xlink:href="#id82">October</textPath></text><path d="M 79.54389044137918 95.25157060432595 l -10.454737809651313 -2.4268341053390516 a31.732710116433292,31.732710116433292 0 0,0 0.1280901417478745,-0.5310163321136153 l 10.411414867642625 2.606435669112064" fill="#ff3905" stroke="none" /><path d="M 79.71946130924805 94.55025226153421 l -16.79265122225946 -4.512489259621341 a38.38837814146708,38.38837814146708 0 0,0 0.17697632669500732,-0.6366780088929679 l 16.712488124998092 4.800878571933251" fill="#ff9e0e" stroke="none" /><path d="M 79.91906864156998 93.8553929516997 l -13.932165353909966 -4.263133014285326 a35.569815872075345,35.569815872075345 0 0,0 0.1841915437839475,-0.5839375286733837 l 13.856718326357814 4.502320709385124" fill="#ff740a" stroke="none" /><path d="M 80.14247586403 93.16781622104843 l -9.368454453536186 -3.2233123380851887 a30.907455842790025,30.907455842790025 0 0,0 0.1774189800883423,-0.5015873482065499 l 9.311582392638034 3.3840973127183496" fill="#ff2d04" stroke="none" /><path d="M 80.2630227832202 92.82701384747504 l -7.514417719000667 -2.730955893127092 a28.995285720087605,28.995285720087605 0 0,0 0.17451767000492163,-0.46762059088653346 l 7.466295460494117 2.859899621042967" fill="#ff0e01" stroke="none" /><path d="M 80.803312248108 91.48605970444005 l -7.1632127195867685 -3.17696293273023 a28.836115743274313,28.836115743274313 0 0,0 0.2051451847534191,-0.45201022157945575 l 7.107465217869998 3.2997951631517566" fill="#ff0c01" stroke="none" /><line stroke="#e1ed5e" stroke-width="0.3" x1="26.266209847984243" x2="21.928928074336255" y1="57.711370442889674" y2="55.22380399835377" /><path d="M 25.398753493254645 57.213857153982495 a86.0,86.0 0 0,1 29.58750427330803,-30.492523968695096" fill="none" id="id83" stroke="none" /><text fill="#e1ed5e" style="font-size:6.75px; font-family:Arial;" text-anchor="middle"><textPath startOffset="21.46611528233685" xlink:href="#id83">November</textPath></text><path d="M 84.80347519578584 85.50635884689758 l -12.862158829527889 -12.267246421871985 a38.77415158399785,38.77415158399785 0 0,0 0.4648018856325999,-0.4790192003836157 l 12.64909268019217 12.486829817805724" fill="#ffa40f" stroke="none" /><path d="M 85.05521093208273 85.24692304244772 l -5.2062301641591775 -5.139444519525392 a28.3156491503817,28.3156491503817 0 0,0 0.3454026479690774,-0.3439193792300982 l 5.1169917160227865 5.228299749405599" fill="#ff0300" stroke="none" /><path d="M 85.31137513191541 84.99185889309783 l -12.173260533174869 -12.438060979413907 a38.4038396032649,38.4038396032649 0 0,0 0.47642112982243656,-0.45831674942121264 l 11.957356159740003 12.645760815597434" fill="#ff9e0e" stroke="none" /><line stroke="#e1ed5e" stroke-width="0.3" x1="56.762969772571076" x2="54.21961505331055" y1="26.818313649435495" y2="22.513508569990535" /><path d="M 56.25429882871897 25.957352633546506 a86.0,86.0 0 0,1 42.265352541879196,-11.944610805530505" fill="none" id="id84" stroke="none" /><text fill="#e1ed5e" style="font-size:6.75px; font-family:Arial;" text-anchor="middle"><textPath startOffset="22.20632615414155" xlink:href="#id84">December</textPath></text><path d="M 89.3179101791058 81.91981866633112 l -17.450793452199125 -29.53668386264794 a55.30664492067569,55.30664492067569 0 0,0 0.8238142498841743,-0.47720638706339513 l 16.939782469849632 29.832694407101382" fill="#80ff25" stroke="none" /><path d="M 89.63071344664047 81.73862282372117 l -9.123520057803374 -16.067454601967153 a39.47705917161646,39.47705917161646 0 0,0 0.5938024774567194,-0.33045043580836514 l 8.845593491274608 16.222120435335704" fill="#ffae10" stroke="none" /><path d="M 89.94658935756843 81.56283822128135 l -8.40283075383572 -15.410128514375565 a38.55219717035956,38.55219717035956 0 0,0 0.5853599540469808,-0.3126790151529187 l 8.136325753260435 15.552486256030233" fill="#ffa00e" stroke="none" /><path d="M 91.23893434514133 80.91482961587045 l -12.915737701737319 -28.135738777129262 a51.95861878241557,51.95861878241557 0 0,0 0.8160419797242271,-0.36613424924950133 l 12.429513603546319 28.353893356895295" fill="#a9ff21" stroke="none" /><path d="M 91.56875222667455 80.76684994638697 l -13.880552035575255 -31.663965679175586 a55.57277031630994,55.57277031630994 0 0,0 0.8794159143189725,-0.37651999966763067 l 13.333452363465975 31.898205206806004" fill="#7dff26" stroke="none" /><path d="M 91.90106846888425 80.62456947434976 l -13.193291728188987 -31.56289274727887 a55.20934295190904,55.20934295190904 0 0,0 0.8799741731157625,-0.3589635600495544 l 12.648033685484844 31.785317193512" fill="#81ff25" stroke="none" /><path d="M 92.91201910852362 80.23233633223022 l -21.26394267442915 -59.30299100330936 a84.0,84.0 0 0,0 1.3652719837468588,-0.4763165873111608 l 20.239988686619004 59.66022844379273" fill="#4dd2ff" stroke="none" /><path d="M 93.25333710446033 80.11325718540243 l -19.291811555502154 -56.86534228434494 a81.04865648962277,81.04865648962277 0 0,0 1.32501885747913,-0.4368378848501465 l 18.310109875780615 57.188993893454324" fill="#49f0ff" stroke="none" /><path d="M 97.11714578562143 79.19881850522333 l -4.064122834843926 -29.32460347214541 a50.60488917755414,50.60488917755414 0 0,0 0.8638622588402508,-0.11215411421030481 l 3.5587458474958167 29.39021590951985" fill="#baff1f" stroke="none" /><path d="M 99.63851952072746 79.00311137660856 l -0.3364211300142282 -19.54129587213045 a40.544191555008425,40.544191555008425 0 0,0 0.6979016092867592,-0.006007059486532536 l 4.7869463259527595e-15 19.544191555008425" fill="#ffbd11" stroke="none" /></svg>