<?xml version="1.0" encoding="utf-8" ?>
<svg baseProfile="full" height="200mm" version="1.1" viewBox="0,0,200,200" width="200mm" xmlns="http://www.w3.org/2000/svg" xmlns:ev="http://www.w3.org/2001/xml-events" xmlns:xlink="http://www.w3.org/1999/xlink"><defs /><rect fill="#1a1a1a" height="200" width="200" x="0" y="0" /><text alignment-baseline="middle" fill="#e1ed5e" style="dominant-baseline: central; font-size:9.0px; font-family:Arial;" text-anchor="middle" x="100.0" y="100.0">2023</text><line stroke="#e1ed5e" stroke-width="0.3" x1="100.0" x2="100.0" y1="15.0" y2="10.0" /><path d="M 100.0 14.0 a86.0,86.0 0 0,1 42.46469731375804,11.215312516191453" fill="none" id="id85" stroke="none" /><text fill="#e1ed5e" style="font-size:6.75px; font-family:Arial;" text-anchor="middle"><textPath startOffset="22.20632615414155" xlink:href="#id85">January</textPath></text><path d="M 100.0 79.0 l 0.0 -23.152395700125872 a44.15239570012587,44.15239570012587 0 0,0 0.7600109123196105,0.006541653866343182 l -0.3985304330470822 23.148965422868088" fill="#e8ff1a" stroke="none" /><path d="M 100.36148047927253 79.00311137660856 l 0.5231179602212558 -30.38573360798398 a51.39023624942184,51.39023624942184 0 0,0 0.8843363138849641,0.02283979794138563 l -1.0460809093010877 30.372227017900236" fill="#93ff23" stroke="none" /><path d="M 101.08401301168833 79.027996857942 l 1.2696445653014368 -24.56334889498012 a45.59614006828552,45.59614006828552 0 0,0 0.7834675125267726,0.04726089991258545 l -1.6922741266678212 24.53785472568723" fill="#d6ff1c" stroke="none" /><path d="M 101.44485096284872 79.0497635885617 l 1.8008931793219365 -26.112823279816535 a47.174849682209384,47.174849682209384 0 0,0 0.8096323162297668,0.06284305005516215 l -2.2501156849140447 26.077954967572907" fill="#c3ff1e" stroke="none" /><path d="M 101.80526077348638 79.07773832637324 l 0.965286585303212 -11.187291511769981 a32.22885878266741,32.22885878266741 0 0,0 0.5523026884970905,0.05244779522832738 l -1.1577144008905467 11.169018172026476" fill="#ff7b0b" stroke="none" /><path d="M 104.307194497241 79.44645832069477 l 6.105700711377169 -29.1358502925837 a50.76873113602193,50.76873113602193 0 0,0 0.8537784183894985,0.1866028934524187 l -6.606321853920196 29.02643390103541" fill="#9aff23" stroke="none" /><path d="M 104.66035177308747 79.52364482259891 l 7.135347129565447 -31.350831279038093 a53.1525706677726,53.1525706677726 0 0,0 0.8903721589510936,0.2107223232530204 l -7.673942975479064 31.223363043644202" fill="#7fff26" stroke="none" /><path d="M 105.01212808612495 79.60689891045804 l 2.8832210528813933 -11.731108500135013 a33.08022641682342,33.08022641682342 0 0,0 0.5517956797190509,0.14066500500370477 l -3.0847256212854695 11.67974049896244" fill="#ff860c" stroke="none" /><path d="M 106.0581310904928 79.89281104454417 l 4.372630992784411 -14.51294405668708 a36.157356200590776,36.157356200590776 0 0,0 0.594383249740607,0.18467776900381072 l -4.621799615235736 14.435526152800751" fill="#ffb010" stroke="none" /><path d="M 106.74666289553966 80.11325718540242 l 5.460460703446977 -16.095479993591805 a37.996502796693285,37.996502796693285 0 0,0 0.6175661993891224,0.21545672073666997 l -5.7367089068993735 15.999102419682927" fill="#ffc812" stroke="none" /><path d="M 107.4271985657038 80.35727306442388 l 7.063683925769379 -18.681339038625556 a40.97218212612853,40.97218212612853 0 0,0 0.6575388163430976,0.25511484526269684 l -7.384205907112143 18.556981489472314" fill="#ffef16" stroke="none" /><path d="M 108.09893153111575 80.62456947434976 l 7.443338815789576 -17.807027204777285 a40.300090947928666,40.300090947928666 0 0,0 0.6377321325963898,0.2730436172958929 l -7.748754706176282 17.676264059518598" fill="#ffe615" stroke="none" /><line stroke="#e1ed5e" stroke-width="0.3" x1="143.23703022742887" x2="145.7803849466894" y1="26.81831364943548" y2="22.513508569990506" /><path d="M 143.74570117128098 25.957352633546492 a86.0,86.0 0 0,1 28.547481713284135,27.462654790039103" fill="none" id="id86" stroke="none" /><text fill="#e1ed5e" style="font-size:6.75px; font-family:Arial;" text-anchor="middle"><textPath startOffset="19.985693538727396" xlink:href="#id86">February</textPath></text><path d="M 112.19680574252982 82.90503203632743 l 5.275200390732135 -7.393688444759488 a30.082641024534134,30.082641024534134 0 0,0 0.41894329828917465,0.3043801230299191 l -5.401689005375099 7.301789086912894" fill="#ff5c08" stroke="none" /><path d="M 112.48926042617603 83.11751280151076 l 7.4520320810987055 -10.07336158578289 a33.53017939918063,33.53017939918063 0 0,0 0.46104610793737333,0.3472503700102182 l -7.624324342794462 9.943594626266826" fill="#ff8c0c" stroke="none" /><path d="M 112.77801427241765 83.33499621200491 l 15.35984450780164 -20.032210126581674 a46.24310333258107,46.24310333258107 0 0,0 0.6275132856278124,0.48978407288331316 l -15.702390348588882 19.764847664475138" fill="#cfff1d" stroke="none" /><path d="M 113.06298171725822 83.55741782278167 l 9.216740753290992 -11.60125770075045 a35.816797574125005,35.816797574125005 0 0,0 0.47942762249476745,0.3876637954344536 l -9.41507177435025 11.440887808051865" fill="#ffab0f" stroke="none" /><path d="M 113.6212207817346 84.01681056812373 l 25.54062606942112 -29.96946244522217 a60.37629057279997,60.37629057279997 0 0,0 0.7851971128636467,0.68091519881452 l -26.052716980931528 29.525382252987978" fill="#34ff2f" stroke="none" /><path d="M 115.68641384162765 86.03803664274999 l 19.869349230153833 -17.685057189274463 a47.59985501121619,47.59985501121619 0 0,0 0.5394834659611518,0.6167228607403374 l -20.170824559692836 17.340418772331176" fill="#beff1e" stroke="none" /><path d="M 116.60985879189232 87.15038557335679 l 14.946603367701309 -11.562897232857692 a39.897130593002956,39.897130593002956 0 0,0 0.4155458274623966,0.5468095992061341 l -15.143425135387819 11.303902857770524" fill="#ffe115" stroke="none" /><path d="M 117.45458315368197 88.32363383020206 l 33.60929568067121 -22.483174741056075 a61.43609653005154,61.43609653005154 0 0,0 0.5804346791446447,0.8840418376716895 l -33.99132699517378 21.901314839406712" fill="#30ff37" stroke="none" /><path d="M 117.65298651832404 88.62581576622439 l 6.397591152919868 -4.122100266158928 a28.610577058553844,28.610577058553844 0 0,0 0.26317971158053144,0.4162871009759569 l -6.4675984607463555 4.011365517468765" fill="#ff4706" stroke="none" /><line stroke="#e1ed5e" stroke-width="0.3" x1="172.23445277983987" x2="176.4835382374775" y1="55.19839476539836" y2="52.563006222186495" /><path d="M 173.08426987136738 54.67131705675599 a86.0,86.0 0 0,1 12.851231095245387,41.99856678651699" fill="none" id="id87" stroke="none" /><text fill="#e1ed5e" style="font-size:6.75px; font-family:Arial;" text-anchor="middle"><textPath startOffset="22.20632615414155" xlink:href="#id87">March</textPath></text><path d="M 117.84615892207809 88.93136811851018 l 9.674198570058632 -6.000178704446127 a32.38385973465122,32.38385973465122 0 0,0 0.2897340778407543,0.47624664352389845 l -9.77604844618561 5.832764287715148" fill="#ff7d0b" stroke="none" /><path d="M 118.56541770881063 90.18545643968196 l 11.278742858495724 -5.962468220566846 a33.7577845940954,33.7577845940954 0 0,0 0.2671535884262574,0.516055699560196 l -11.379705880082097 5.767439798746305" fill="#ff900d" stroke="none" /><path d="M 119.196687751892 91.48605970444005 l 7.086203614622142 -3.142808555143987 a28.75187250167146,28.75187250167146 0 0,0 0.19675767561471202,0.45414384302577887 l -7.1392520000795345 3.020365567531605" fill="#ff4906" stroke="none" /><path d="M 120.08093135843002 93.85539295169968 l 11.609688698347156 -3.5524734252173538 a33.14104357579715,33.14104357579715 0 0,0 0.16222399253124048,0.5469386569487616 l -11.669118587990098 3.3521053815220623" fill="#ff870c" stroke="none" /><path d="M 120.28053869075195 94.5502522615342 l 26.34991392053925 -7.0806986928167674 a48.28468906911503,48.28468906911503 0 0,0 0.20878223247512118,0.804523109359319 l -26.467892484884675 6.626079157908598" fill="#b6ff1f" stroke="none" /><line stroke="#e1ed5e" stroke-width="0.3" x1="184.98032266829074" x2="189.97916517819016" y1="98.17113171792111" y2="98.06355123074" /><path d="M 185.9800911702706 98.14961562048488 a86.0,86.0 0 0,1 -9.607161424134198,41.387399972396054" fill="none" id="id88" stroke="none" /><text fill="#e1ed5e" style="font-size:6.75px; font-family:Arial;" text-anchor="middle"><textPath startOffset="21.466115282336823" xlink:href="#id88">April</textPath></text><path d="M 120.9764740272857 100.99374915477107 l 17.686593489976097 0.8378928369267712 a38.70642972724423,38.70642972724423 0 0,0 -0.03725705661442951,0.6652497737256099 l -17.66955008247414 -1.1422143269878045" fill="#ffd213" stroke="none" /><path d="M 119.79798401119884 107.00284435728193 l 9.723669273416302 3.439407894505906 a31.31403271293871,31.31403271293871 0 0,0 -0.1841201585779339,0.5066195999449049 l -9.663024853833143 -3.606275291456942" fill="#ff6e0a" stroke="none" /><line stroke="#e1ed5e" stroke-width="0.3" x1="174.80103733775053" x2="179.2010983576182" y1="140.37084112569926" y2="142.7455964860345" /><path d="M 175.68104954172406 140.8457921977663 a86.0,86.0 0 0,1 -30.038265399797805,32.042727171017184" fill="none" id="id89" stroke="none" /><text fill="#e1ed5e" style="font-size:6.75px; font-family:Arial;" text-anchor="middle"><textPath startOffset="22.206326154141568" xlink:href="#id89">May</textPath></text><path d="M 116.71984013943494 112.70617746262583 l 4.389479692568756 3.3357680143618764 a26.51315519617517,26.51315519617517 0 0,0 -0.27926329444920445,0.3609854531465258 l -4.331409580901483 -3.410831461621655" fill="#ff2904" stroke="none" /><path d="M 115.07121518719521 114.62390073753431 l 7.904150377004965 7.669554783218286 a32.0135218597456,32.0135218597456 0 0,0 -0.3871492381558067,0.39218013426558795 l -7.770960513793622 -7.804475411464539" fill="#ff780b" stroke="none" /><path d="M 114.29624159901734 115.38237550388516 l 5.139569248117058 5.530039734932253 a28.549603401909277,28.549603401909277 0 0,0 -0.36285247669104476,0.33145713430808477 l -5.043617221959149 -5.61768963582692" fill="#ff4706" stroke="none" /><path d="M 112.63410532772338 116.77436683061366 l 6.805485556674411 9.03567828721517 a32.31185730868966,32.31185730868966 0 0,0 -0.4471576841712369,0.3307965647194504 l -6.64894290208461 -9.15148480067439" fill="#ff7c0b" stroke="none" /><line stroke="#e1ed5e" stroke-width="0.3" x1="143.8653032363475" x2="146.44561519142675" y1="172.8068346515853" y2="177.08958963109032" /><path d="M 144.38136562736335 173.6633856474863 a86.0,86.0 0 0,1 -40.68145358897372,12.25698825130547" fill="none" id="id90" stroke="none" /><text fill="#e1ed5e" style="font-size:6.75px; font-family:Arial;" text-anchor="middle"><textPath startOffset="21.466115282336833" xlink:href="#id90">June</textPath></text><path d="M 110.8373102113329 117.98757091392108 l 12.085963464479114 20.06006293453134 a44.41957808761896,44.41957808761896 0 0,0 -0.6583238026776512,0.388949306517174 l -11.73887179077308 -20.265130813342264" fill="#e5ff1a" stroke="none" /><path d="M 110.21172684928248 118.3499491758327 l 23.50200775422677 42.23190202648134 a69.33092092288388,69.33092092288388 0 0,0 -1.0478120349077122,0.5713506660861511 l -22.77157290745041 -42.63019334432727" fill="#3aff95" stroke="none" /><path d="M 108.2653958097858 119.30500536409082 l 9.593874318483564 22.407855527192 a45.37528284484854,45.37528284484854 0 0,0 -0.7206643743872488,0.30123776694148136 l -9.206738484598855 -22.569678337153455" fill="#d9ff1c" stroke="none" /><path d="M 107.93186726928326 119.44442032107085 l 5.290190158761034 12.968532822491 a35.00603282460378,35.00603282460378 0 0,0 -0.5598946970081441,0.2227936548491918 l -5.066174385711023 -13.057673321746261" fill="#ffa10e" stroke="none" /><path d="M 106.91757812671514 119.82793768551818 l 2.4898835092744798 7.1367831575958025 a28.558650258366246,28.558650258366246 0 0,0 -0.46554716047137373,0.15793887329656203 l -2.3666666158658787 -7.178585017790488" fill="#ff4706" stroke="none" /><path d="M 104.13013068566511 120.58985236759428 l 1.6648792062442155 8.299886777293496 a29.465219624278852,29.465219624278852 0 0,0 -0.49814796239887377,0.09547124259588716 l -1.5217636292736374 -8.327315218237851" fill="#ff5407" stroke="none" /><path d="M 103.7750983002368 120.6578951692458 l 1.450210422220215 7.935765506740216 a29.067185658374544,29.067185658374544 0 0,0 -0.4929670508877606,0.08570864068382736 l -1.3133943998604045 -7.959552725945049" fill="#ff4e07" stroke="none" /><path d="M 101.62511606390274 120.93702456842531 l 0.7269579494010807 9.365691955730671 a30.39386255327571,30.39386255327571 0 0,0 -0.5219599371656192,0.035997413249735946 l -0.5656352514565312 -9.376817713496694" fill="#ff6108" stroke="none" /><line stroke="#e1ed5e" stroke-width="0.3" x1="102.19456741930631" x2="102.32365962044197" y1="184.97166512339345" y2="189.96999836594603" /><path d="M 102.22038585953345 185.97133177190398 a86.0,86.0 0 0,1 -42.740103519485714,-10.115201625700543" fill="none" id="id91" stroke="none" /><text fill="#e1ed5e" style="font-size:6.75px; font-family:Arial;" text-anchor="middle"><textPath startOffset="22.20632615414155" xlink:href="#id91">July</textPath></text><path d="M 99.09653310690486 120.98055641714683 l -0.592072373283249 13.749267323064107 a34.76200935969322,34.76200935969322 0 0,0 -0.597595244989106,-0.030888848189810563 l 0.8286556866858439 -13.737038668112094" fill="#ff9d0e" stroke="none" /><path d="M 98.73552117531835 120.96189622390904 l -0.5603045867389662 9.288448625432252 a30.305332831082133,30.305332831082133 0 0,0 -0.5204395983751006,-0.03589256178542796 l 0.7201069458929968 -9.27742771913054" fill="#ff6008" stroke="none" /><path d="M 98.37488393609728 120.93702456842531 l -0.9079112794484668 11.696986563601477 a32.73216934588072,32.73216934588072 0 0,0 -0.561365561074527,-0.048436982712602675 l 1.1091211582645355 -11.67962532861021" fill="#ff820b" stroke="none" /><path d="M 92.40401165467489 119.57807347666478 l -1.3366021616469848 3.444988873093594 a24.695193320282183,24.695193320282183 0 0,0 -0.39498071235022253,-0.15717097691704476 l 1.3957039500390653 -3.4214710517704825" fill="#ff0e01" stroke="none" /><path d="M 92.06813273071674 119.44442032107085 l -4.188567970633956 10.267982733369777 a32.08943510993236,32.08943510993236 0 0,0 -0.509654402750792,-0.21303558168402772 l 4.36469383288221 -10.194362108665777" fill="#ff790b" stroke="none" /><path d="M 91.7346041902142 119.30500536409082 l -4.496574900884097 10.502389066332361 a32.42450707645097,32.42450707645097 0 0,0 -0.5111944727346007,-0.22409263422609083 l 4.676690048276441 -10.423431878811817" fill="#ff7d0b" stroke="none" /><path d="M 91.07499286063937 119.00905698771935 l -4.989200509498442 10.626321674293743 a32.73928592587916,32.73928592587916 0 0,0 -0.5080627877124755,-0.2439010130267552 l 5.17137596521116 -10.538866384767426" fill="#ff820b" stroke="none" /><path d="M 90.7491055286396 118.85261126421891 l -4.179549537818599 8.51760042663773 a30.487789593310914,30.487789593310914 0 0,0 -0.46914333668898206,-0.23523820827176561 l 4.325546782190342 -8.44439437745666" fill="#ff6209" stroke="none" /><path d="M 90.42595943632237 118.69057910512821 l -5.511417861482687 10.75946888216331 a33.08891630668816,33.08891630668816 0 0,0 -0.5046990913605527,-0.26403471104768433 l 5.695807855369735 -10.663004752170908" fill="#ff860c" stroke="none" /><path d="M 90.10565033884886 118.52300852407294 l -5.203393931951954 9.741166772596351 a32.04380543574585,32.04380543574585 0 0,0 -0.48428442220120904,-0.26407048018319285 l 5.370301166021804 -9.650155640653393" fill="#ff780b" stroke="none" /><line stroke="#e1ed5e" stroke-width="0.3" x1="58.666819895761336" x2="56.23545636021788" y1="174.27360380694188" y2="178.64263932499728" /><path d="M 58.180547188652646 175.14741091055294 a86.0,86.0 0 0,1 -31.652253787137756,-30.449443065178592" fill="none" id="id92" stroke="none" /><text fill="#e1ed5e" style="font-size:6.75px; font-family:Arial;" text-anchor="middle"><textPath startOffset="22.20632615414155" xlink:href="#id92">August</textPath></text><path d="M 89.7882731507175 118.34994917583269 l -24.88976761715082 44.725635293025384 a72.18479251106218,72.18479251106218 0 0,0 -1.0805418350185334,-0.613559854333137 l 25.65595821909056 -44.29057227289761" fill="#3effb5" stroke="none" /><path d="M 87.65650970185807 116.9893568818739 l -37.030470894425804 50.968070645621694 a84.0,84.0 0 0,0 -1.1624601183257428,-0.8599602050409332 l 37.902315983170105 -50.323100491841" fill="#4dd2ff" stroke="none" /><path d="M 86.79598089348748 116.32954008644616 l -7.468367128976577 9.236202964351124 a32.87787661039911,32.87787661039911 0 0,0 -0.4370094034278232,-0.35962898757238126 l 7.626246660949088 -9.106278857921561" fill="#ff840c" stroke="none" /><path d="M 85.70375840098266 115.38237550388516 l -7.861746426011018 8.459029934800553 a32.54825719772247,32.54825719772247 0 0,0 -0.40710765804156474,-0.38494570105710546 l 8.006189918443399 -8.322449596997517" fill="#ff7f0b" stroke="none" /><path d="M 85.44109423537348 115.13401014063109 l -7.229762763431393 7.515352097543753 a31.428326172763988,31.428326172763988 0 0,0 -0.3866433125467928,-0.37841185895710877 l 7.358056028353979 -7.389790135664074" fill="#ff6f0a" stroke="none" /><path d="M 85.18274418774928 114.88116024355367 l -5.604181983758047 5.62835191556783 a28.94261927782985,28.94261927782985 0 0,0 -0.3500118810025401,-0.3545601875390571 l 5.70023448981612 -5.531051234048108" fill="#ff4c07" stroke="none" /><path d="M 83.95833913139862 113.55231037782056 l -9.86616312458921 8.335128513055178 a33.91570912223364,33.91570912223364 0 0,0 -0.37291775727481075,-0.44920346187397187 l 10.008176881757558 -8.164063794067445" fill="#ff920d" stroke="none" /><path d="M 83.72743513129214 113.27417163493432 l -2.1355177100784637 1.7420258479064463 a23.755919074434686,23.755919074434686 0 0,0 -0.25575179930494996,-0.319089693269778 l 2.1651874214382745 -1.7050083210584088" fill="#ff0000" stroke="none" /><path d="M 83.28015986056508 112.70617746262583 l -7.782943419078805 5.914617570484343 a30.775321440733507,30.775321440733507 0 0,0 -0.3168960250188478,-0.4245340119210259 l 7.883600710792738 -5.7797706790540095" fill="#ff6609" stroke="none" /><path d="M 83.06392112726016 112.41649034213515 l -7.314507723869913 5.362546737845417 a30.06967092887769,30.06967092887769 0 0,0 -0.3024439112759384,-0.4200681402702654 l 7.4057314275214585 -5.235844992124013" fill="#ff5c08" stroke="none" /><path d="M 82.44556493220864 111.52570212397912 l -9.184774370045572 6.030440344920894 a31.98755163729826,31.98755163729826 0 0,0 -0.298238430621839,-0.46287266733201204 l 9.287217664044457 -5.871446077667434" fill="#ff770b" stroke="none" /><path d="M 82.24976979558568 111.22182372390057 l -9.522248828396446 6.020034477119584 a32.26561307056149,32.26561307056149 0 0,0 -0.2927495339397022,-0.47200546219168443 l 9.624463002004104 -5.855232683562635" fill="#ff7b0b" stroke="none" /><path d="M 82.05923443525364 110.91462005526583 l -11.812729810538698 7.1865081360236225 a34.82702009711143,34.82702009711143 0 0,0 -0.30717286497271706,-0.5148393902444571 l 11.934683551209647 -6.982106651893055" fill="#ff9e0e" stroke="none" /><line stroke="#e1ed5e" stroke-width="0.3" x1="26.63291911575756" x2="22.317208475507996" y1="142.92168965132927" y2="145.44649492493687" /><path d="M 25.769776987707644 143.4266507060508 a86.0,86.0 0 0,1 -11.730757126820373,-40.83630448921669" fill="none" id="id93" stroke="none" /><text fill="#e1ed5e" style="font-size:6.75px; font-family:Arial;" text-anchor="middle"><textPath startOffset="21.46611528233685" xlink:href="#id93">September</textPath></text><path d="M 81.35079622478065 109.6543875284942 l -10.783228105717273 5.582300681334072 a33.14249106554144,33.14249106554144 0 0,0 -0.257913808406074,-0.5088884122745347 l 10.877720583909614 -5.395858057356852" fill="#ff870c" stroke="none" /><path d="M 81.18737489456691 109.33194174019688 l -10.232747485427469 5.075921241240137 a32.422525882999565,32.422525882999565 0 0,0 -0.24370429156935547,-0.5021030234596603 l 10.318605033611544 -4.899029261815192" fill="#ff7d0b" stroke="none" /><path d="M 81.02952815118164 109.00673069616217 l -7.0045987364279485 3.3256175680002382 a28.753975475003763,28.753975475003763 0 0,0 -0.20843261590765116,-0.4489453116290709 l 7.060805969175426 -3.20455218909234" fill="#ff4906" stroke="none" /><path d="M 79.23777060512086 103.15116336523772 l -12.62277599389663 1.9158072345246226 a33.767332969416515,33.767332969416515 0 0,0 -0.08227322076279427,-0.5754187143929145 l 12.653883265676022 -1.6982430481513076" fill="#ff900d" stroke="none" /><line stroke="#e1ed5e" stroke-width="0.3" x1="15.007084014347285" x2="10.007500721073583" y1="101.09737516637583" y2="101.16192664675087" /><path d="M 14.007167355692545 101.11028546245083 a86.0,86.0 0 0,1 10.666146001902534,-42.60595125391555" fill="none" id="id94" stroke="none" /><text fill="#e1ed5e" style="font-size:6.75px; font-family:Arial;" text-anchor="middle"><textPath startOffset="22.20632615414155" xlink:href="#id94">October</textPath></text><path d="M 79.08570108090925 98.10471618934814 l -12.454376331793277 -1.1286334734303216 a33.50541096211076,33.50541096211076 0 0,0 0.05699569451260763,-0.5739388655654883 l 12.433103511598441 1.3428478697002402" fill="#ff8c0c" stroke="none" /><path d="M 79.16333360222342 97.38593545837743 l -11.092908425015862 -1.3916611238923708 a32.17986305862202,32.17986305862202 0 0,0 0.07368269360140754,-0.5490216518464437 l 11.067309732356621 1.5824011178034738" fill="#ff7a0b" stroke="none" /><path d="M 79.46518482838121 95.60439243477599 l -12.857286033647322 -2.752183707787126 a34.14854818268661,34.14854818268661 0 0,0 0.12798487703375264,-0.5737311084298525 l 12.80800676961153 2.9730929857669377" fill="#ff950d" stroke="none" /><path d="M 79.54389044137918 95.25157060432595 l -46.21146208849722 -10.726959804809107 a68.44014012427246,68.44014012427246 0 0,0 0.27626090609962045,-1.1452798089033156 l 46.01996838213678 11.52082484537182" fill="#39ff8b" stroke="none" /><line stroke="#e1ed5e" stroke-width="0.3" x1="26.266209847984243" x2="21.928928074336255" y1="57.711370442889674" y2="55.22380399835377" /><path d="M 25.398753493254645 57.213857153982495 a86.0,86.0 0 0,1 29.58750427330803,-30.492523968695096" fill="none" id="id95" stroke="none" /><text fill="#e1ed5e" style="font-size:6.75px; font-family:Arial;" text-anchor="middle"><textPath startOffset="21.46611528233685" xlink:href="#id95">November</textPath></text><path d="M 81.78341655067845 89.55222093294921 l -14.382368498552704 -8.248737143922892 a37.579933295936215,37.579933295936215 0 0,0 0.32665967891541287,-0.5583672795571222 l 14.238249145166966 8.495083835833906" fill="#ffc312" stroke="none" /><path d="M 82.7489923806493 88.02491185347247 l -4.160508302618766 -2.8880894819345366 a26.064670788098727,26.064670788098727 0 0,0 0.25901751725917654,-0.3663619092487125 l 4.110178165555711 2.9592778915150353" fill="#ff2203" stroke="none" /><path d="M 85.83668400450813 84.49514656593479 l -31.61437346016996 -34.60886045794344 a67.87474620172893,67.87474620172893 0 0,0 0.8694076641893884,-0.7805627851071983 l 31.013954808384604 35.14792225181992" fill="#38ff84" stroke="none" /><path d="M 86.37877921826538 84.01681056812374 l -11.602126742114997 -13.613977227395496 a38.88713842089179,38.88713842089179 0 0,0 0.513203682027522,-0.42979332475026644 l 11.366065523128366 13.811671709539574" fill="#ffd413" stroke="none" /><line stroke="#e1ed5e" stroke-width="0.3" x1="56.762969772571076" x2="54.21961505331055" y1="26.818313649435495" y2="22.513508569990535" /><path d="M 56.25429882871897 25.957352633546506 a86.0,86.0 0 0,1 42.265352541879196,-11.944610805530505" fill="none" id="id96" stroke="none" /><text fill="#e1ed5e" style="font-size:6.75px; font-family:Arial;" text-anchor="middle"><textPath startOffset="22.20632615414155" xlink:href="#id96">December</textPath></text><path d="M 89.3179101791058 81.91981866633112 l -5.357181165404788 -9.067402402700075 a31.531722383896135,31.531722383896135 0 0,0 0.46967741869900553,-0.27206747649015095 l 5.200307014240463 9.158274036580274" fill="#ff710a" stroke="none" /><path d="M 89.63071344664047 81.73862282372117 l -7.267602352914352 -12.798993166099931 a35.718433001714516,35.718433001714516 0 0,0 0.5372663124445562,-0.2989881211895033 l 7.04621195139775 12.922196684849618" fill="#ffaa0f" stroke="none" /><path d="M 91.56875222667455 80.76684994638697 l -5.206335148904577 -11.87656060412355 a33.967598754825,33.967598754825 0 0,0 0.5375230845280975,-0.2301393326098656 l 5.001128306586171 11.964419464696203" fill="#ff920d" stroke="none" /></svg>