<?xml version="1.0" encoding="utf-8" ?>
<svg baseProfile="full" height="200mm" version="1.1" viewBox="0,0,200,200" width="200mm" xmlns="http://www.w3.org/2000/svg" xmlns:ev="http://www.w3.org/2001/xml-events" xmlns:xlink="http://www.w3.org/1999/xlink"><defs /><rect fill="#1a1a1a" height="200" width="200" x="0" y="0" /><text alignment-baseline="middle" fill="#e1ed5e" style="dominant-baseline: central; font-size:9.0px; font-family:Arial;" text-anchor="middle" x="100.0" y="100.0">2020</text><line stroke="#e1ed5e" stroke-width="0.3" x1="100.0" x2="100.0" y1="15.0" y2="10.0" /><path d="M 100.0 14.0 a86.0,86.0 0 0,1 42.35913384403234,11.155469271406648" fill="none" id="id49" stroke="none" /><text fill="#e1ed5e" style="font-size:6.75px; font-family:Arial;" text-anchor="middle"><textPath startOffset="22.145653131862478" xlink:href="#id49">January</textPath></text><path d="M 101.44090949804482 79.04949213459386 l 0.778232417433309 -11.315328550942395 a32.34205915657806,32.34205915657806 0 0,0 0.5535589920803674,0.0428489669387654 l -0.9723604042889098 11.300301817008576" fill="#ff820c" stroke="none" /><path d="M 109.3889696526874 81.21577127319529 l 3.2438694499425136 -6.489911881882951 a28.255456239470806,28.255456239470806 0 0,0 0.4320027541217755,0.220583684396069 l -3.354799425777868 6.4332702458140485" fill="#ff4906" stroke="none" /><line stroke="#e1ed5e" stroke-width="0.3" x1="143.13028292997686" x2="145.6673583964461" y1="26.7553504044142" y2="22.446841604673864" /><path d="M 143.63769802327073 25.89364864446614 a86.0,86.0 0 0,1 29.32050498858742,28.57503671076993" fill="none" id="id50" stroke="none" /><text fill="#e1ed5e" style="font-size:6.75px; font-family:Arial;" text-anchor="middle"><textPath startOffset="20.669276256404974" xlink:href="#id50">February</textPath></text><path d="M 113.03279911837588 83.53348406188908 l 4.241123142853978 -5.358520544433818 a27.833803328891673,27.833803328891673 0 0,0 0.3721104210795024,0.2997458149070269 l -4.33248433428874 5.284926435733383" fill="#ff4306" stroke="none" /><path d="M 115.41159269507618 85.73525988315684 l 3.007983123835978 -2.784144272842021 a25.098709773243414,25.098709773243414 0 0,0 0.289952604613871,0.3187087046908308 l -3.0553334292917267 2.732097992593518" fill="#ff1c02" stroke="none" /><line stroke="#e1ed5e" stroke-width="0.3" x1="172.87174338648825" x2="177.1583165268699" y1="56.24261187166439" y2="53.66864786411523" /><path d="M 173.72905801456457 55.72781907015455 a86.0,86.0 0 0,1 12.242430191666344,42.057860355516425" fill="none" id="id51" stroke="none" /><text fill="#e1ed5e" style="font-size:6.75px; font-family:Arial;" text-anchor="middle"><textPath startOffset="22.145653131862474" xlink:href="#id51">March</textPath></text><line stroke="#e1ed5e" stroke-width="0.3" x1="184.99686870605535" x2="189.99668451229388" y1="99.2704041080226" y2="99.22748670261217" /><path d="M 185.99683186730306 99.26182062694052 a86.0,86.0 0 0,1 -10.086455211305974,41.156179273409016" fill="none" id="id52" stroke="none" /><text fill="#e1ed5e" style="font-size:6.75px; font-family:Arial;" text-anchor="middle"><textPath startOffset="21.40746469413373" xlink:href="#id52">April</textPath></text><line stroke="#e1ed5e" stroke-width="0.3" x1="174.33088141563837" x2="178.70328620479359" y1="141.23008692659167" y2="143.65538615756765" /><path d="M 175.20536237346943 141.71514677278685 a86.0,86.0 0 0,1 -30.301960400862466,31.631185727798858" fill="none" id="id53" stroke="none" /><text fill="#e1ed5e" style="font-size:6.75px; font-family:Arial;" text-anchor="middle"><textPath startOffset="22.145653131862474" xlink:href="#id53">May</textPath></text><line stroke="#e1ed5e" stroke-width="0.3" x1="143.1302829299769" x2="145.66735839644613" y1="173.24464959558577" y2="177.55315839532614" /><path d="M 143.63769802327073 174.10635135553383 a86.0,86.0 0 0,1 -40.68552437913181,11.842963189579606" fill="none" id="id54" stroke="none" /><text fill="#e1ed5e" style="font-size:6.75px; font-family:Arial;" text-anchor="middle"><textPath startOffset="21.407464694133747" xlink:href="#id54">June</textPath></text><path d="M 109.3889696526874 118.78422872680471 l 2.0446686164513337 4.0907069021090985 a25.573243128247615,25.573243128247615 0 0,0 -0.3943634609624859,0.19290293056179306 l -1.9741449062267784 -4.1252035827681155" fill="#ff2303" stroke="none" /><path d="M 101.08105385017728 120.97215588758144 l 0.20877096136559736 4.050100876881889 a25.055478076285084,25.055478076285084 0 0,0 -0.4297303694718367,0.01845447108109681 l -0.1392148312929311 -4.053087916388817" fill="#ff1b02" stroke="none" /><line stroke="#e1ed5e" stroke-width="0.3" x1="101.45913802915013" x2="101.54496967792366" y1="184.9874750549273" y2="189.98673829345242" /><path d="M 101.47630435890484 185.9873277026323 a86.0,86.0 0 0,1 -42.54439059252881,-10.42667462771756" fill="none" id="id55" stroke="none" /><text fill="#e1ed5e" style="font-size:6.75px; font-family:Arial;" text-anchor="middle"><textPath startOffset="22.145653131862474" xlink:href="#id55">July</textPath></text><path d="M 98.91894614982273 120.97215588758144 l -0.3336016376451116 6.471782647921289 a27.48037504274055,27.48037504274055 0 0,0 -0.4709032459356549,-0.028328369919573097 l 0.44464923571321285 -6.4651023001770245" fill="#ff3e05" stroke="none" /><path d="M 98.55909050195518 120.95050786540614 l -0.4962814701771944 7.215823657565489 a28.232869856061495,28.232869856061495 0 0,0 -0.4832270853687675,-0.03740483254922233 l 0.620077550321198 -7.206241058021213" fill="#ff4906" stroke="none" /><path d="M 93.95794788825049 120.11202640906438 l -2.7738809909873114 9.233347663097975 a30.641012644935053,30.641012644935053 0 0,0 -0.5024533201229574,-0.15566132295339455 l 2.9319749439819023 -9.18436975233793" fill="#ff6b09" stroke="none" /><path d="M 91.59046798132341 119.24265499422711 l -0.8949475561782108 2.0478151487166927 a23.234832882258296,23.234832882258296 0 0,0 -0.36410819468763705,-0.16286096421451357 l 0.9299691537214829 -2.032150433592324" fill="#ff0000" stroke="none" /><line stroke="#e1ed5e" stroke-width="0.3" x1="58.13341422392154" x2="55.67067388415222" y1="173.97424548756322" y2="178.32567169271397" /><path d="M 57.64086615596768 174.84453072859336 a86.0,86.0 0 0,1 -31.369924170532247,-30.572349798747897" fill="none" id="id56" stroke="none" /><text fill="#e1ed5e" style="font-size:6.75px; font-family:Arial;" text-anchor="middle"><textPath startOffset="22.145653131862474" xlink:href="#id56">August</textPath></text><path d="M 82.78059297857968 112.02048342749411 l -3.7690031322265285 2.6310569018285177 a25.596503565906684,25.596503565906684 0 0,0 -0.24842048230356728,-0.36245290781696304 l 3.8136133513454205 -2.5659692589415033" fill="#ff2303" stroke="none" /><line stroke="#e1ed5e" stroke-width="0.3" x1="26.387840678322732" x2="22.057713659400548" y1="142.50000000000003" y2="145.00000000000006" /><path d="M 25.521815274538298 143.00000000000003 a86.0,86.0 0 0,1 -11.493303480769221,-40.785679425670985" fill="none" id="id57" stroke="none" /><text fill="#e1ed5e" style="font-size:6.75px; font-family:Arial;" text-anchor="middle"><textPath startOffset="21.40746469413373" xlink:href="#id57">September</textPath></text><line stroke="#e1ed5e" stroke-width="0.3" x1="15.003131293944662" x2="10.003315487706104" y1="100.72959589197737" y2="100.7725132973878" /><path d="M 14.003168132696942 100.73817937305945 a86.0,86.0 0 0,1 10.791469493833604,-42.45332614584628" fill="none" id="id58" stroke="none" /><text fill="#e1ed5e" style="font-size:6.75px; font-family:Arial;" text-anchor="middle"><textPath startOffset="22.145653131862435" xlink:href="#id58">October</textPath></text><line stroke="#e1ed5e" stroke-width="0.3" x1="26.387840678322718" x2="22.05771365940052" y1="57.49999999999999" y2="54.99999999999999" /><path d="M 25.521815274538284 56.99999999999999 a86.0,86.0 0 0,1 29.574782752854787,-30.34633250058573" fill="none" id="id59" stroke="none" /><text fill="#e1ed5e" style="font-size:6.75px; font-family:Arial;" text-anchor="middle"><textPath startOffset="21.40746469413373" xlink:href="#id59">November</textPath></text><path d="M 81.99639281039701 89.18935116829357 l -4.269155987953505 -2.5635055079514766 a25.979684060136428,25.979684060136428 0 0,0 0.23286708635453618,-0.3803708849191803 l 4.224520937143576 2.6364135089952" fill="#ff2803" stroke="none" /><path d="M 82.98947788004972 87.6856937992154 l -6.492084399016634 -4.699768449615416 a29.014673001686074,29.014673001686074 0 0,0 0.29553237892840717,-0.4009464306531595 l 6.410450000504409 4.810521189537439" fill="#ff5407" stroke="none" /><path d="M 84.10781606972428 86.27271002978789 l -3.1569723176177624 -2.726917497431692 a25.171636759355252,25.171636759355252 0 0,0 0.2852652881323685,-0.32457953246795973 l 3.1096959655268015 2.780709307710952" fill="#ff1d02" stroke="none" /><path d="M 84.34580500576568 86.00192230759919 l -4.8010233883330615 -4.2931047184267435 a27.44054141347597,27.44054141347597 0 0,0 0.3170065922406317,-0.3484457762537142 l 4.726619095250564 4.374888070238115" fill="#ff3e05" stroke="none" /><path d="M 85.86807049272753 84.46653392183569 l -12.853762970738389 -14.128537152692402 a40.100648800052184,40.100648800052184 0 0,0 0.5131641323641241,-0.4588745314870654 l 12.609333811550874 14.34710721406287" fill="#ffe815" stroke="none" /><path d="M 86.68645165197937 83.75963576809568 l -11.895907695376142 -14.511073140823859 a39.76389787851258,39.76389787851258 0 0,0 0.5316039855745283,-0.4282225405071745 l 11.64505293944637 14.713143975124432" fill="#ffe415" stroke="none" /><path d="M 87.54013794807813 83.09580414077388 l -2.9727555345913097 -4.033113816904481 a26.01031760755235,26.01031760755235 0 0,0 0.3616907936956967,-0.261836241837037 l 2.903083730521645 4.083550830114597" fill="#ff2904" stroke="none" /><path d="M 88.12776184653039 82.6780497279521 l -3.1088262846741404 -4.535870457738689 a26.498992787562774,26.498992787562774 0 0,0 0.3774260525929111,-0.25394909217406253 l 3.03050394398424 4.588569223969861" fill="#ff3004" stroke="none" /><path d="M 88.72937992617638 82.28071324371311 l -6.366766015550846 -10.009613668172792 a32.862886465057514,32.862886465057514 0 0,0 0.4786023577393375,-0.2986832685066797 l 6.19399952902181 10.117432733521007" fill="#ff890c" stroke="none" /><line stroke="#e1ed5e" stroke-width="0.3" x1="56.869717070023135" x2="54.33264160355391" y1="26.7553504044142" y2="22.446841604673864" /><path d="M 56.362301976729285 25.89364864446614 a86.0,86.0 0 0,1 42.16139366436587,-11.88097634709845" fill="none" id="id60" stroke="none" /><text fill="#e1ed5e" style="font-size:6.75px; font-family:Arial;" text-anchor="middle"><textPath startOffset="22.145653131862474" xlink:href="#id60">December</textPath></text><path d="M 89.34428304082924 81.90426304109057 l -1.880971255942211 -3.1943004121844294 a24.70696749229912,24.70696749229912 0 0,0 0.36731911178209703,-0.2120717880658868 l 1.8258596762997144 3.2261190975264906" fill="#ff1602" stroke="none" /><path d="M 89.65649057296885 81.72400993836675 l -7.927237568398094 -14.006669210126391 a37.09434303809027,37.09434303809027 0 0,0 0.556867010918532,-0.3088847438568392 l 7.685626369323459 14.140686869416378" fill="#ffc212" stroke="none" /><path d="M 91.26138138417902 80.90454125486306 l -2.93169250968524 -6.406277219922143 a28.045225957330107,28.045225957330107 0 0,0 0.43949085602109694,-0.1965786698002298 l 2.821288250808524 6.455659640632218" fill="#ff4606" stroke="none" /><path d="M 91.5904679813234 80.7573450057729 l -6.40819208037109 -14.663197555519222 a37.002321340702906,37.002321340702906 0 0,0 0.5842224711357005,-0.24936983291229972 l 6.155534534064958 14.771042038090926" fill="#ffc111" stroke="none" /><path d="M 92.592206182469 80.34994680014964 l -4.079549240136903 -10.821489039069604 a32.564918807557845,32.564918807557845 0 0,0 0.5247772285704821,-0.19270546725310086 l 3.8931828599122937 10.889925355331426" fill="#ff850c" stroke="none" /><path d="M 93.27111125876988 80.10723608172694 l -20.186666223690388 -59.67829175481917 a84.0,84.0 0 0,0 1.3699090494089559,-0.4503163143918858 l 19.15923443663367 60.01602899061309" fill="#4dd2ff" stroke="none" /></svg>