<?xml version="1.0" encoding="utf-8" ?>
<svg baseProfile="full" height="200mm" version="1.1" viewBox="0,0,200,200" width="200mm" xmlns="http://www.w3.org/2000/svg" xmlns:ev="http://www.w3.org/2001/xml-events" xmlns:xlink="http://www.w3.org/1999/xlink"><defs /><rect fill="#1a1a1a" height="200" width="200" x="0" y="0" /><text alignment-baseline="middle" fill="#e1ed5e" style="dominant-baseline: central; font-size:9.0px; font-family:Arial;" text-anchor="middle" x="100.0" y="100.0">2021</text><line stroke="#e1ed5e" stroke-width="0.3" x1="100.0" x2="100.0" y1="15.0" y2="10.0" /><path d="M 100.0 14.0 a86.0,86.0 0 0,1 42.46469731375804,11.215312516191453" fill="none" id="id61" stroke="none" /><text fill="#e1ed5e" style="font-size:6.75px; font-family:Arial;" text-anchor="middle"><textPath startOffset="22.20632615414155" xlink:href="#id61">January</textPath></text><path d="M 106.0581310904928 79.89281104454417 l 18.174393271478365 -60.321566866367476 a84.0,84.0 0 0,0 1.380858509157127,0.4290394604699177 l -19.21003715334621 59.99978727101504" fill="#4dd2ff" stroke="none" /><line stroke="#e1ed5e" stroke-width="0.3" x1="143.23703022742887" x2="145.7803849466894" y1="26.81831364943548" y2="22.513508569990506" /><path d="M 143.74570117128098 25.957352633546492 a86.0,86.0 0 0,1 28.547481713284135,27.462654790039103" fill="none" id="id62" stroke="none" /><text fill="#e1ed5e" style="font-size:6.75px; font-family:Arial;" text-anchor="middle"><textPath startOffset="19.985693538727396" xlink:href="#id62">February</textPath></text><line stroke="#e1ed5e" stroke-width="0.3" x1="172.23445277983987" x2="176.4835382374775" y1="55.19839476539836" y2="52.563006222186495" /><path d="M 173.08426987136738 54.67131705675599 a86.0,86.0 0 0,1 12.851231095245387,41.99856678651699" fill="none" id="id63" stroke="none" /><text fill="#e1ed5e" style="font-size:6.75px; font-family:Arial;" text-anchor="middle"><textPath startOffset="22.20632615414155" xlink:href="#id63">March</textPath></text><path d="M 120.96714384426684 98.82574320788733 l 28.404488741486766 -1.5907824202913003 a49.44899944416247,49.44899944416247 0 0,0 0.040280664616831344,0.8502611660901203 l -28.427663014337096 1.1016101475781803" fill="#ffbb11" stroke="none" /><line stroke="#e1ed5e" stroke-width="0.3" x1="184.98032266829074" x2="189.97916517819016" y1="98.17113171792111" y2="98.06355123074" /><path d="M 185.9800911702706 98.14961562048488 a86.0,86.0 0 0,1 -9.607161424134198,41.387399972396054" fill="none" id="id64" stroke="none" /><text fill="#e1ed5e" style="font-size:6.75px; font-family:Arial;" text-anchor="middle"><textPath startOffset="21.466115282336823" xlink:href="#id64">April</textPath></text><path d="M 120.99513854157772 99.54816195383933 l 44.309172453020466 -0.9535812239829287 a65.31943231385348,65.31943231385348 0 0,0 0.014516444080172143,1.1243145916919908 l -44.31902190421835 0.1907303742304751" fill="#46ff2d" stroke="none" /><path d="M 120.89721153311464 102.0752229133903 l 18.64020581608438 1.8510882257449182 a39.73189260287057,39.73189260287057 0 0,0 -0.07344288704051509,0.6799899209500063 l -18.60558062754281 -2.171674468579716" fill="#ff0000" stroke="none" /><line stroke="#e1ed5e" stroke-width="0.3" x1="174.80103733775053" x2="179.2010983576182" y1="140.37084112569926" y2="142.7455964860345" /><path d="M 175.68104954172406 140.8457921977663 a86.0,86.0 0 0,1 -30.038265399797805,32.042727171017184" fill="none" id="id65" stroke="none" /><text fill="#e1ed5e" style="font-size:6.75px; font-family:Arial;" text-anchor="middle"><textPath startOffset="22.206326154141568" xlink:href="#id65">May</textPath></text><path d="M 118.48025628344425 109.97397251340804 l 27.451448159610045 14.81581127435356 a52.19439484550101,52.19439484550101 0 0,0 -0.43352065502180515,0.7869659134510124 l -27.192351095136733 -15.286147706202378" fill="#ffeb16" stroke="none" /><path d="M 118.30583269289576 110.29060199501025 l 44.53431627474339 25.034912729271557 a72.08866979498602,72.08866979498602 0 0,0 -0.6173811125075469,1.0764560088657495 l -44.09678316608346 -25.797788583995622" fill="#38ff83" stroke="none" /><line stroke="#e1ed5e" stroke-width="0.3" x1="143.8653032363475" x2="146.44561519142675" y1="172.8068346515853" y2="177.08958963109032" /><path d="M 144.38136562736335 173.6633856474863 a86.0,86.0 0 0,1 -40.68145358897372,12.25698825130547" fill="none" id="id66" stroke="none" /><text fill="#e1ed5e" style="font-size:6.75px; font-family:Arial;" text-anchor="middle"><textPath startOffset="21.466115282336833" xlink:href="#id66">June</textPath></text><path d="M 104.83641907484287 120.43548508189849 l 5.281060748275821 22.314244582185342 a43.930658819592765,43.930658819592765 0 0,0 -0.7373653360858669,0.16782194983771612 l -4.896175262797092 -22.401843265600743" fill="#ff5407" stroke="none" /><path d="M 104.48393922423573 120.51570834832081 l 12.926152838483103 59.14201072726163 a81.53811080689051,81.53811080689051 0 0,0 -1.373756182018827,0.2878839647232148 l -11.906205195034898 -59.35575067271139" fill="#49f2ff" stroke="none" /><path d="M 102.34483914955558 120.86867818915974 l 2.307600605364292 20.53726134331415 a41.666497623870946,41.666497623870946 0 0,0 -0.7134244932930525,0.07394936574658628 l -1.9537435154656368 -20.573940077516497" fill="#ff2703" stroke="none" /><line stroke="#e1ed5e" stroke-width="0.3" x1="102.19456741930631" x2="102.32365962044197" y1="184.97166512339345" y2="189.96999836594603" /><path d="M 102.22038585953345 185.97133177190398 a86.0,86.0 0 0,1 -42.740103519485714,-10.115201625700543" fill="none" id="id67" stroke="none" /><text fill="#e1ed5e" style="font-size:6.75px; font-family:Arial;" text-anchor="middle"><textPath startOffset="22.20632615414155" xlink:href="#id67">July</textPath></text><path d="M 100.54218724476979 120.99299961872073 l 1.0978149317722168 42.50640100156778 a63.520575298677514,63.520575298677514 0 0,0 -1.093280782578578,0.01882182014461288 l -0.36597445930097083 -42.51900029899155" fill="#5fff29" stroke="none" /><path d="M 100.18074693466247 120.99922214144158 l 0.24908047902102548 28.93822968465233 a49.93930162195907,49.93930162195907 0 0,0 -0.859654827366942,0.0 l 0.24908047902100555 -28.93822968465233" fill="#ffc412" stroke="none" /><path d="M 99.81925306533755 120.99922214144158 l -0.23657257299441917 27.4850581679841 a48.48607627653978,48.48607627653978 0 0,0 -0.8345153545371568,-0.014366938632150788 l 0.7096476174242439 -27.47691375207279" fill="#ffa90f" stroke="none" /><path d="M 94.46302465271185 120.25689768951611 l -15.199829930376373 55.60823021335649 a78.64815779688037,78.64815779688037 0 0,0 -1.3028210849297512,-0.36819025212922324 l 16.154782183410738 -55.338351167888746" fill="#44ffe5" stroke="none" /><path d="M 94.11515582081647 120.15858648285463 l -10.619629777903505 36.37763699012115 a58.89602894242041,58.89602894242041 0 0,0 -0.970732834431585,-0.29247383997137216 l 11.244237586775336 -36.18944778104405" fill="#a5ff21" stroke="none" /><line stroke="#e1ed5e" stroke-width="0.3" x1="58.666819895761336" x2="56.23545636021788" y1="174.27360380694188" y2="178.64263932499728" /><path d="M 58.180547188652646 175.14741091055294 a86.0,86.0 0 0,1 -31.652253787137756,-30.449443065178592" fill="none" id="id68" stroke="none" /><text fill="#e1ed5e" style="font-size:6.75px; font-family:Arial;" text-anchor="middle"><textPath startOffset="22.20632615414155" xlink:href="#id68">August</textPath></text><line stroke="#e1ed5e" stroke-width="0.3" x1="26.63291911575756" x2="22.317208475507996" y1="142.92168965132927" y2="145.44649492493687" /><path d="M 25.769776987707644 143.4266507060508 a86.0,86.0 0 0,1 -11.730757126820373,-40.83630448921669" fill="none" id="id69" stroke="none" /><text fill="#e1ed5e" style="font-size:6.75px; font-family:Arial;" text-anchor="middle"><textPath startOffset="21.46611528233685" xlink:href="#id69">September</textPath></text><line stroke="#e1ed5e" stroke-width="0.3" x1="15.007084014347285" x2="10.007500721073583" y1="101.09737516637583" y2="101.16192664675087" /><path d="M 14.007167355692545 101.11028546245083 a86.0,86.0 0 0,1 10.666146001902534,-42.60595125391555" fill="none" id="id70" stroke="none" /><text fill="#e1ed5e" style="font-size:6.75px; font-family:Arial;" text-anchor="middle"><textPath startOffset="22.20632615414155" xlink:href="#id70">October</textPath></text><line stroke="#e1ed5e" stroke-width="0.3" x1="26.266209847984243" x2="21.928928074336255" y1="57.711370442889674" y2="55.22380399835377" /><path d="M 25.398753493254645 57.213857153982495 a86.0,86.0 0 0,1 29.58750427330803,-30.492523968695096" fill="none" id="id71" stroke="none" /><text fill="#e1ed5e" style="font-size:6.75px; font-family:Arial;" text-anchor="middle"><textPath startOffset="21.46611528233685" xlink:href="#id71">November</textPath></text><line stroke="#e1ed5e" stroke-width="0.3" x1="56.762969772571076" x2="54.21961505331055" y1="26.818313649435495" y2="22.513508569990535" /><path d="M 56.25429882871897 25.957352633546506 a86.0,86.0 0 0,1 42.265352541879196,-11.944610805530505" fill="none" id="id72" stroke="none" /><text fill="#e1ed5e" style="font-size:6.75px; font-family:Arial;" text-anchor="middle"><textPath startOffset="22.20632615414155" xlink:href="#id72">December</textPath></text></svg>