<?xml version="1.0" encoding="utf-8" ?>
<svg baseProfile="full" height="200mm" version="1.1" viewBox="0,0,200,200" width="200mm" xmlns="http://www.w3.org/2000/svg" xmlns:ev="http://www.w3.org/2001/xml-events" xmlns:xlink="http://www.w3.org/1999/xlink"><defs /><rect fill="#1a1a1a" height="200" width="200" x="0" y="0" /><text alignment-baseline="middle" fill="#e1ed5e" style="dominant-baseline: central; font-size:9.0px; font-family:Arial;" text-anchor="middle" x="100.0" y="100.0">2024</text><line stroke="#e1ed5e" stroke-width="0.3" x1="100.0" x2="100.0" y1="15.0" y2="10.0" /><path d="M 100.0 14.0 a86.0,86.0 0 0,1 42.35913384403234,11.155469271406648" fill="none" id="id97" stroke="none" /><text fill="#e1ed5e" style="font-size:6.75px; font-family:Arial;" text-anchor="middle"><textPath startOffset="22.145653131862478" xlink:href="#id97">January</textPath></text><path d="M 100.0 79.0 l 0.0 -23.79513245143425 a44.79513245143425,44.79513245143425 0 0,0 0.7689680150671134,0.00660066557034242 l -0.4084750902182587 23.79162618405834" fill="#ff8c0c" stroke="none" /><path d="M 100.36049292484886 79.00309439819443 l 0.7125168632047961 -41.50053519823813 a62.506651298563625,62.506651298563625 0 0,0 1.072693567144054,0.027628781183592282 l -1.4248237444195915 41.482188699704494" fill="#5dff2a" stroke="none" /><path d="M 101.44090949804482 79.04949213459386 l 3.0750434325588563 -44.71045663014021 a65.81607774212031,65.81607774212031 0 0,0 1.1264923325143659,0.08719763097204451 l -3.8421047598484557 44.65108123217311" fill="#32ff2f" stroke="none" /><path d="M 101.80034050326958 79.07731436759882 l 3.5569119619994147 -41.33670862144541 a62.48945772554389,62.48945772554389 0 0,0 1.0679758886443562,0.1011384270249654 l -4.265987414028784 41.26955843891526" fill="#5dff2a" stroke="none" /><path d="M 102.15924093988457 79.11130261209362 l 4.310645297010736 -41.70158294640001 a62.923784217459676,62.923784217459676 0 0,0 1.0734920390730578,0.1202870220682566 l -5.025873237684591 41.621440163824786" fill="#58ff2a" stroke="none" /><path d="M 102.51750503828377 79.15144685158666 l 4.950801419478449 -40.99973781645401 a62.29756573592539,62.29756573592539 0 0,0 1.060607685371887,0.13731689897699165 l -5.653886926741127 40.90870932127662" fill="#60ff29" stroke="none" /><line stroke="#e1ed5e" stroke-width="0.3" x1="143.13028292997686" x2="145.6673583964461" y1="26.7553504044142" y2="22.446841604673864" /><path d="M 143.63769802327073 25.89364864446614 a86.0,86.0 0 0,1 29.32050498858742,28.57503671076993" fill="none" id="id98" stroke="none" /><text fill="#e1ed5e" style="font-size:6.75px; font-family:Arial;" text-anchor="middle"><textPath startOffset="20.669276256404974" xlink:href="#id98">February</textPath></text><line stroke="#e1ed5e" stroke-width="0.3" x1="172.87174338648825" x2="177.1583165268699" y1="56.24261187166439" y2="53.66864786411523" /><path d="M 173.72905801456457 55.72781907015455 a86.0,86.0 0 0,1 12.242430191666344,42.057860355516425" fill="none" id="id99" stroke="none" /><text fill="#e1ed5e" style="font-size:6.75px; font-family:Arial;" text-anchor="middle"><textPath startOffset="22.145653131862474" xlink:href="#id99">March</textPath></text><path d="M 118.36410011445183 89.81374322990088 l 35.917526000177936 -19.922846211048586 a62.072965258458645,62.072965258458645 0 0,0 0.5088642682099531,0.9362529389293165 l -36.25423561800323 19.30333843864467" fill="#63ff29" stroke="none" /><path d="M 118.53625476483649 90.13048839642627 l 45.460454766641895 -24.205131592939036 a72.50282849534955,72.50282849534955 0 0,0 0.5755064993651537,1.1036095959089869 l -45.86926933498199 23.421175753925553" fill="#3aff93" stroke="none" /><path d="M 118.70294669586156 90.45014215332178 l 27.788283148567523 -14.188895375015093 a52.20117677761668,52.20117677761668 0 0,0 0.4006566763555103,0.8015817419783803 l -28.02775973813477 13.709781776872964" fill="#f5ff19" stroke="none" /><path d="M 120.86939407059847 97.66154086499901 l 41.446355551285215 -4.644150588346347 a62.70573729321649,62.70573729321649 0 0,0 0.11068341233965256,1.0707616104886652 l -41.51997135610654 3.9319844555747507" fill="#5bff2a" stroke="none" /><path d="M 120.9064616781168 98.02013634271609 l 52.5539388482416 -4.97691264905269 a73.78907224019966,73.78907224019966 0 0,0 0.10859775749710816,1.2620705563026917 l -52.63163022843645 4.074021045374336" fill="#3cffa6" stroke="none" /><line stroke="#e1ed5e" stroke-width="0.3" x1="184.99686870605535" x2="189.99668451229388" y1="99.2704041080226" y2="99.22748670261217" /><path d="M 185.99683186730306 99.26182062694052 a86.0,86.0 0 0,1 -10.086455211305974,41.156179273409016" fill="none" id="id100" stroke="none" /><text fill="#e1ed5e" style="font-size:6.75px; font-family:Arial;" text-anchor="middle"><textPath startOffset="21.40746469413373" xlink:href="#id100">April</textPath></text><path d="M 120.99922638620191 99.81974689727618 l 39.16778700658056 -0.3362083442941127 a60.169229952140164,60.169229952140164 0 0,0 0.0,1.0329228940358743 l -39.16778700658056 -0.33620834429410795" fill="#7eff26" stroke="none" /><path d="M 120.99922638620191 100.18025310272382 l 40.63704188894729 0.34882013038413034 a61.63853896201754,61.63853896201754 0 0,0 -0.018164491167837662,1.0579905459057046 l -40.625065966180784 -1.0463575922589061" fill="#69ff28" stroke="none" /><path d="M 120.77682067341334 103.0534771498775 l 16.053488850465175 2.359310028768482 a37.225931347194134,37.225931347194134 0 0,0 -0.0983447202336011,0.6314436516418584 l -16.010622638093306 -2.6345418623417913" fill="#ff0000" stroke="none" /><path d="M 120.7213421655516 103.40968896794604 l 41.196745743335164 6.778908834865448 a62.750754063039636,62.750754063039636 0 0,0 -0.18402460197486736,1.0614050015561143 l -41.07430632386806 -7.485106869342151" fill="#5aff2a" stroke="none" /><path d="M 120.43855184770803 104.8234425847677 l 31.688556035397404 7.478412940889151 a53.55904242638256,53.55904242638256 0 0,0 -0.21885875752507325,0.8930184164364539 l -31.555509751356034 -8.021287181933705" fill="#e0ff1b" stroke="none" /><path d="M 120.35273937422433 105.17358676015961 l 42.727635363718015 10.861197824338756 a65.08646551895794,65.08646551895794 0 0,0 -0.28455343770859753,1.0804957514940976 l -42.53489244520469 -11.593074080205657" fill="#3bff2e" stroke="none" /><path d="M 120.26092885502905 105.52220625578681 l 51.46673388823095 14.027487183637126 a74.34411958041002,74.34411958041002 0 0,0 -0.3461657199028693,1.2284200189909271 l -51.2183496762535 -14.908915126531062" fill="#3dffae" stroke="none" /><path d="M 120.16314734710363 105.8691983318838 l 43.50136674750966 12.662613864488 a66.30685046196064,66.30685046196064 0 0,0 -0.3275043113754088,1.090155337564194 l -43.27758611613062 -13.407506805642917" fill="#30ff35" stroke="none" /><path d="M 119.58574465831526 107.57618678355244 l 38.47244788810664 14.88196932543161 a62.25048190635073,62.25048190635073 0 0,0 -0.39407912136321727,0.9933368173706457 l -38.2113100917773 -15.54020716001582" fill="#61ff29" stroke="none" /><line stroke="#e1ed5e" stroke-width="0.3" x1="174.33088141563837" x2="178.70328620479359" y1="141.23008692659167" y2="143.65538615756765" /><path d="M 175.20536237346943 141.71514677278685 a86.0,86.0 0 0,1 -30.301960400862466,31.631185727798858" fill="none" id="id101" stroke="none" /><text fill="#e1ed5e" style="font-size:6.75px; font-family:Arial;" text-anchor="middle"><textPath startOffset="22.145653131862474" xlink:href="#id101">May</textPath></text><path d="M 118.00360718960297 110.81064883170644 l 54.010821568808936 32.43194649511934 a84.0,84.0 0 0,0 -0.7529281421783813,1.2298515355017718 l -53.44612546217515 -33.35433514674567" fill="#4dd2ff" stroke="none" /><path d="M 115.6541949942343 113.99807769240083 l 32.26303336565982 28.849803379309225 a64.28064783455166,64.28064783455166 0 0,0 -0.7426015693350319,0.8162492093469067 l -31.76303409548291 -29.399390164213806" fill="#45ff2d" stroke="none" /><path d="M 115.41159269507618 114.26474011684316 l 43.54661879302134 40.306100241550475 a80.33708557880674,80.33708557880674 0 0,0 -0.9454686683539487,1.004054961587029 l -42.84829429093113 -41.047696663082" fill="#47ffff" stroke="none" /><line stroke="#e1ed5e" stroke-width="0.3" x1="143.1302829299769" x2="145.66735839644613" y1="173.24464959558577" y2="177.55315839532614" /><path d="M 143.63769802327073 174.10635135553383 a86.0,86.0 0 0,1 -40.68552437913181,11.842963189579606" fill="none" id="id102" stroke="none" /><text fill="#e1ed5e" style="font-size:6.75px; font-family:Arial;" text-anchor="middle"><textPath startOffset="21.407464694133747" xlink:href="#id102">June</textPath></text><line stroke="#e1ed5e" stroke-width="0.3" x1="101.45913802915013" x2="101.54496967792366" y1="184.9874750549273" y2="189.98673829345242" /><path d="M 101.47630435890484 185.9873277026323 a86.0,86.0 0 0,1 -42.54439059252881,-10.42667462771756" fill="none" id="id103" stroke="none" /><text fill="#e1ed5e" style="font-size:6.75px; font-family:Arial;" text-anchor="middle"><textPath startOffset="22.145653131862474" xlink:href="#id103">July</textPath></text><line stroke="#e1ed5e" stroke-width="0.3" x1="58.13341422392154" x2="55.67067388415222" y1="173.97424548756322" y2="178.32567169271397" /><path d="M 57.64086615596768 174.84453072859336 a86.0,86.0 0 0,1 -31.369924170532247,-30.572349798747897" fill="none" id="id104" stroke="none" /><text fill="#e1ed5e" style="font-size:6.75px; font-family:Arial;" text-anchor="middle"><textPath startOffset="22.145653131862474" xlink:href="#id104">August</textPath></text><line stroke="#e1ed5e" stroke-width="0.3" x1="26.387840678322732" x2="22.057713659400548" y1="142.50000000000003" y2="145.00000000000006" /><path d="M 25.521815274538298 143.00000000000003 a86.0,86.0 0 0,1 -11.493303480769221,-40.785679425670985" fill="none" id="id105" stroke="none" /><text fill="#e1ed5e" style="font-size:6.75px; font-family:Arial;" text-anchor="middle"><textPath startOffset="21.40746469413373" xlink:href="#id105">September</textPath></text><line stroke="#e1ed5e" stroke-width="0.3" x1="15.003131293944662" x2="10.003315487706104" y1="100.72959589197737" y2="100.7725132973878" /><path d="M 14.003168132696942 100.73817937305945 a86.0,86.0 0 0,1 10.791469493833604,-42.45332614584628" fill="none" id="id106" stroke="none" /><text fill="#e1ed5e" style="font-size:6.75px; font-family:Arial;" text-anchor="middle"><textPath startOffset="22.145653131862435" xlink:href="#id106">October</textPath></text><line stroke="#e1ed5e" stroke-width="0.3" x1="26.387840678322718" x2="22.05771365940052" y1="57.49999999999999" y2="54.99999999999999" /><path d="M 25.521815274538284 56.99999999999999 a86.0,86.0 0 0,1 29.574782752854787,-30.34633250058573" fill="none" id="id107" stroke="none" /><text fill="#e1ed5e" style="font-size:6.75px; font-family:Arial;" text-anchor="middle"><textPath startOffset="21.40746469413373" xlink:href="#id107">November</textPath></text><line stroke="#e1ed5e" stroke-width="0.3" x1="56.869717070023135" x2="54.33264160355391" y1="26.7553504044142" y2="22.446841604673864" /><path d="M 56.362301976729285 25.89364864446614 a86.0,86.0 0 0,1 42.16139366436587,-11.88097634709845" fill="none" id="id108" stroke="none" /><text fill="#e1ed5e" style="font-size:6.75px; font-family:Arial;" text-anchor="middle"><textPath startOffset="22.145653131862474" xlink:href="#id108">December</textPath></text></svg>