<?xml version="1.0" encoding="utf-8" ?>
<svg baseProfile="full" height="200mm" version="1.1" viewBox="0,0,200,200" width="200mm" xmlns="http://www.w3.org/2000/svg" xmlns:ev="http://www.w3.org/2001/xml-events" xmlns:xlink="http://www.w3.org/1999/xlink"><defs /><rect fill="#1a1a1a" height="200" width="200" x="0" y="0" /><text alignment-baseline="middle" fill="#e1ed5e" style="dominant-baseline: central; font-size:9.0px; font-family:Arial;" text-anchor="middle" x="100.0" y="100.0">2024</text><line stroke="#e1ed5e" stroke-width="0.3" x1="100.0" x2="100.0" y1="15.0" y2="10.0" /><path d="M 100.0 14.0 a86.0,86.0 0 0,1 42.35913384403234,11.155469271406648" fill="none" id="id97" stroke="none" /><text fill="#e1ed5e" style="font-size:6.75px; font-family:Arial;" text-anchor="middle"><textPath startOffset="22.145653131862478" xlink:href="#id97">January</textPath></text><path d="M 100.0 79.0 l 0.0 -5.277902808520366 a26.277902808520366,26.277902808520366 0 0,0 0.45109514487321156,0.003872109285915309 l -0.09060222002435676 5.277125097428886" fill="#ff1902" stroke="none" /><path d="M 100.36049292484886 79.00309439819443 l 0.1580405051790349 -9.205067117190055 a30.20642370485146,30.20642370485146 0 0,0 0.5183806158460198,0.013351645841558527 l -0.31603443509579604 9.200997753998452" fill="#ff5307" stroke="none" /><path d="M 101.44090949804482 79.04949213459386 l 0.6820630396636539 -9.917046904448794 a30.94047429930346,30.94047429930346 0 0,0 0.5295697990252236,0.040992051678036906 l -0.8522018334641109 9.903877085775703" fill="#ff5e08" stroke="none" /><path d="M 101.80034050326958 79.07731436759882 l 0.7889443638194521 -9.16872940183884 a30.202610067439917,30.202610067439917 0 0,0 0.5161776161960185,0.048882556921607055 l -0.9462215434004837 9.15383508941205" fill="#ff5307" stroke="none" /><path d="M 102.15924093988457 79.11130261209362 l 0.956126929155074 -9.249660711146129 a30.298946283099813,30.298946283099813 0 0,0 0.5169059367886023,0.05792038837977067 l -1.1147687675444728 9.231884562259388" fill="#ff5507" stroke="none" /><path d="M 102.51750503828377 79.15144685158666 l 1.098117388908123 -9.093987260281809 a30.16004727553249,30.16004727553249 0 0,0 0.5134707520869081,0.06647906890023636 l -1.2540659628858228 9.073796595181175" fill="#ff5307" stroke="none" /><line stroke="#e1ed5e" stroke-width="0.3" x1="143.13028292997686" x2="145.6673583964461" y1="26.7553504044142" y2="22.446841604673864" /><path d="M 143.63769802327073 25.89364864446614 a86.0,86.0 0 0,1 29.32050498858742,28.57503671076993" fill="none" id="id98" stroke="none" /><text fill="#e1ed5e" style="font-size:6.75px; font-family:Arial;" text-anchor="middle"><textPath startOffset="20.669276256404974" xlink:href="#id98">February</textPath></text><line stroke="#e1ed5e" stroke-width="0.3" x1="172.87174338648825" x2="177.1583165268699" y1="56.24261187166439" y2="53.66864786411523" /><path d="M 173.72905801456457 55.72781907015455 a86.0,86.0 0 0,1 12.242430191666344,42.057860355516425" fill="none" id="id99" stroke="none" /><text fill="#e1ed5e" style="font-size:6.75px; font-family:Arial;" text-anchor="middle"><textPath startOffset="22.145653131862474" xlink:href="#id99">March</textPath></text><path d="M 118.36410011445183 89.81374322990088 l 7.966722258779279 -4.419006542015475 a30.11022954523676,30.11022954523676 0 0,0 0.24683885906485978,0.4541556986392351 l -8.04140646745948 4.281596009901636" fill="#ff5207" stroke="none" /><path d="M 118.53625476483649 90.13048839642627 l 10.083400980397155 -5.368843072242605 a32.42363564132898,32.42363564132898 0 0,0 0.2573694493288542,0.49353985452198573 l -10.174078498700954 5.1949569746161215" fill="#ff730a" stroke="none" /><path d="M 118.70294669586156 90.45014215332178 l 6.163607534991618 -3.147181924809163 a27.920607770510546,27.920607770510546 0 0,0 0.21429742779199717,0.4287384077398334 l -6.216724875995353 3.0409116609055786" fill="#ff3204" stroke="none" /><path d="M 120.86939407059847 97.66154086499901 l 9.193049747192173 -1.0301003990396898 a30.25058217013674,30.25058217013674 0 0,0 0.05339603367065424,0.5165581887866487 l -9.209378173344493 0.8721376879701098" fill="#ff5407" stroke="none" /><path d="M 120.9064616781168 98.02013634271609 l 11.656778209243507 -1.10390901592197 a32.708932203020396,32.708932203020396 0 0,0 0.04813879046764594,0.5594457147686356 l -11.674010622408893 0.9036422537776725" fill="#ff770b" stroke="none" /><line stroke="#e1ed5e" stroke-width="0.3" x1="184.99686870605535" x2="189.99668451229388" y1="99.2704041080226" y2="99.22748670261217" /><path d="M 185.99683186730306 99.26182062694052 a86.0,86.0 0 0,1 -10.086455211305974,41.156179273409016" fill="none" id="id100" stroke="none" /><text fill="#e1ed5e" style="font-size:6.75px; font-family:Arial;" text-anchor="middle"><textPath startOffset="21.40746469413373" xlink:href="#id100">April</textPath></text><path d="M 120.99922638620191 99.81974689727618 l 8.687649605123285 -0.07457302321050636 a29.68796965908546,29.68796965908546 0 0,0 0.0,0.5096522518686655 l -8.687649605123285 -0.07457302321050531" fill="#ff4c07" stroke="none" /><path d="M 120.99922638620191 100.18025310272382 l 9.01353913256772 0.07737039285578229 a30.01387119233575,30.01387119233575 0 0,0 -0.008844899755358428,0.5151710683325941 l -9.010882801213693 -0.23208837715744743" fill="#ff5107" stroke="none" /><path d="M 120.77682067341334 103.0534771498775 l 3.5607599185821504 0.5233090865294544 a24.599008696547628,24.599008696547628 0 0,0 -0.064986490350583,0.4172598862133947 l -3.5512519360933 -0.5843571546742997" fill="#ff0000" stroke="none" /><path d="M 120.7213421655516 103.40968896794604 l 9.137684797696615 1.5036025561641007 a30.260567159140905,30.260567159140905 0 0,0 -0.08874297863258063,0.5118459182238714 l -9.1105270015718 -1.6602415073085601" fill="#ff5407" stroke="none" /><path d="M 120.43855184770803 104.8234425847677 l 7.028711407197819 1.6587567539097612 a28.22179049919852,28.22179049919852 0 0,0 -0.1153229356607203,0.47055693154403977 l -6.999200945020803 -1.7791695100619005" fill="#ff3605" stroke="none" /><path d="M 120.35273937422433 105.17358676015961 l 9.47724527896077 2.409078689432452 a30.778641940957947,30.778641940957947 0 0,0 -0.1345620522249835,0.5109540299784211 l -9.434493745931057 -2.571413223783676" fill="#ff5c08" stroke="none" /><path d="M 120.26092885502905 105.52220625578681 l 11.415629641418178 3.1113806218186997 a32.83204502543217,32.83204502543217 0 0,0 -0.15287461289819293,0.5424980698040291 l -11.360536536445405 -3.3068866155257375" fill="#ff790b" stroke="none" /><path d="M 120.16314734710363 105.8691983318838 l 9.648863531218408 2.8086435498938283 a31.049330626187835,31.049330626187835 0 0,0 -0.1533595635224861,0.5104841094715026 l -9.599227647692294 -2.9738652629560542" fill="#ff5f08" stroke="none" /><path d="M 119.58574465831526 107.57618678355244 l 8.53341922654658 3.3009098755520943 a30.14960380030262,30.14960380030262 0 0,0 -0.19086325135517146,0.48110007451883186 l -8.475497300225284 -3.44691096728449" fill="#ff5307" stroke="none" /><line stroke="#e1ed5e" stroke-width="0.3" x1="174.33088141563837" x2="178.70328620479359" y1="141.23008692659167" y2="143.65538615756765" /><path d="M 175.20536237346943 141.71514677278685 a86.0,86.0 0 0,1 -30.301960400862466,31.631185727798858" fill="none" id="id101" stroke="none" /><text fill="#e1ed5e" style="font-size:6.75px; font-family:Arial;" text-anchor="middle"><textPath startOffset="22.145653131862474" xlink:href="#id101">May</textPath></text><path d="M 118.00360718960297 110.81064883170644 l 11.97992351714465 7.19359986088479 a34.97377709980938,34.97377709980938 0 0,0 -0.313485012103813,0.5120542079583009 l -11.854670540585433 -7.398191184967648" fill="#ff970d" stroke="none" /><path d="M 115.6541949942343 113.99807769240083 l 7.156133917705451 6.399059076123726 a30.599906755164646,30.599906755164646 0 0,0 -0.3535051301346207,0.38856406300197055 l -7.0452310867289505 -6.520960714683368" fill="#ff5908" stroke="none" /><path d="M 115.41159269507618 114.26474011684316 l 9.658900705778581 8.94013429425396 a34.161320756040624,34.161320756040624 0 0,0 -0.4020367207961837,0.4269490653332461 l -9.504008151246138 -9.104624819531704" fill="#ff8b0c" stroke="none" /><path d="M 114.39649973595853 115.28858382429668 l 43.18949920787558 45.86575147289004 a84.0,84.0 0 0,0 -1.058280914744131,0.9795290154704817 l -42.39578852181748 -46.6003982344929" fill="#4dd2ff" stroke="none" /><path d="M 111.8722381534696 117.32195027204791 l 4.7954727011180305 6.996737985369166 a29.48238768644042,29.48238768644042 0 0,0 -0.41991864727512057,0.2825400062604977 l -4.6746577657459065 -7.078027665686784" fill="#ff4906" stroke="none" /><line stroke="#e1ed5e" stroke-width="0.3" x1="143.1302829299769" x2="145.66735839644613" y1="173.24464959558577" y2="177.55315839532614" /><path d="M 143.63769802327073 174.10635135553383 a86.0,86.0 0 0,1 -40.68552437913181,11.842963189579606" fill="none" id="id102" stroke="none" /><text fill="#e1ed5e" style="font-size:6.75px; font-family:Arial;" text-anchor="middle"><textPath startOffset="21.407464694133747" xlink:href="#id102">June</textPath></text><path d="M 109.3889696526874 118.78422872680471 l 3.876007225796458 7.754610885899367 a29.669338037366828,29.669338037366828 0 0,0 -0.45752909688477506,0.22380040836176585 l -3.7423178796496135 -7.820005044358356" fill="#ff4c07" stroke="none" /><path d="M 103.58742460773223 120.69131181640829 l 2.7172359008714464 15.672294598885326 a36.906105398092734,36.906105398092734 0 0,0 -0.6251586649902874,0.102869620423376 l -2.447799732828087 -15.716630217804374" fill="#ffb110" stroke="none" /><path d="M 102.875027216393 120.80226474461374 l 1.1444791563252574 8.280881053515518 a29.35959470080549,29.35959470080549 0 0,0 -0.4998431545636204,0.06471470356683984 l -1.0021581798708616 -8.299307353282753" fill="#ff4706" stroke="none" /><path d="M 102.51750503828377 120.84855314841334 l 1.1746899497418906 9.72811790946664 a30.79878433983064,30.79878433983064 0 0,0 -0.5254332715857546,0.058875894030110315 l -1.0075207765553367 -9.746849564003721" fill="#ff5c08" stroke="none" /><path d="M 101.80034050326958 120.92268563240118 l 0.33655958952494675 3.9113325925912505 a24.925785909492237,24.925785909492237 0 0,0 -0.4266238231174313,0.03302338206691913 l -0.2693667716322796 -3.916533741653223" fill="#ff0500" stroke="none" /><line stroke="#e1ed5e" stroke-width="0.3" x1="101.45913802915013" x2="101.54496967792366" y1="184.9874750549273" y2="189.98673829345242" /><path d="M 101.47630435890484 185.9873277026323 a86.0,86.0 0 0,1 -42.54439059252881,-10.42667462771756" fill="none" id="id103" stroke="none" /><text fill="#e1ed5e" style="font-size:6.75px; font-family:Arial;" text-anchor="middle"><textPath startOffset="22.145653131862474" xlink:href="#id103">July</textPath></text><line stroke="#e1ed5e" stroke-width="0.3" x1="58.13341422392154" x2="55.67067388415222" y1="173.97424548756322" y2="178.32567169271397" /><path d="M 57.64086615596768 174.84453072859336 a86.0,86.0 0 0,1 -31.369924170532247,-30.572349798747897" fill="none" id="id104" stroke="none" /><text fill="#e1ed5e" style="font-size:6.75px; font-family:Arial;" text-anchor="middle"><textPath startOffset="22.145653131862474" xlink:href="#id104">August</textPath></text><line stroke="#e1ed5e" stroke-width="0.3" x1="26.387840678322732" x2="22.057713659400548" y1="142.50000000000003" y2="145.00000000000006" /><path d="M 25.521815274538298 143.00000000000003 a86.0,86.0 0 0,1 -11.493303480769221,-40.785679425670985" fill="none" id="id105" stroke="none" /><text fill="#e1ed5e" style="font-size:6.75px; font-family:Arial;" text-anchor="middle"><textPath startOffset="21.40746469413373" xlink:href="#id105">September</textPath></text><line stroke="#e1ed5e" stroke-width="0.3" x1="15.003131293944662" x2="10.003315487706104" y1="100.72959589197737" y2="100.7725132973878" /><path d="M 14.003168132696942 100.73817937305945 a86.0,86.0 0 0,1 10.791469493833604,-42.45332614584628" fill="none" id="id106" stroke="none" /><text fill="#e1ed5e" style="font-size:6.75px; font-family:Arial;" text-anchor="middle"><textPath startOffset="22.145653131862435" xlink:href="#id106">October</textPath></text><line stroke="#e1ed5e" stroke-width="0.3" x1="26.387840678322718" x2="22.05771365940052" y1="57.49999999999999" y2="54.99999999999999" /><path d="M 25.521815274538284 56.99999999999999 a86.0,86.0 0 0,1 29.574782752854787,-30.34633250058573" fill="none" id="id107" stroke="none" /><text fill="#e1ed5e" style="font-size:6.75px; font-family:Arial;" text-anchor="middle"><textPath startOffset="21.40746469413373" xlink:href="#id107">November</textPath></text><line stroke="#e1ed5e" stroke-width="0.3" x1="56.869717070023135" x2="54.33264160355391" y1="26.7553504044142" y2="22.446841604673864" /><path d="M 56.362301976729285 25.89364864446614 a86.0,86.0 0 0,1 42.16139366436587,-11.88097634709845" fill="none" id="id108" stroke="none" /><text fill="#e1ed5e" style="font-size:6.75px; font-family:Arial;" text-anchor="middle"><textPath startOffset="22.145653131862474" xlink:href="#id108">December</textPath></text></svg>