<?xml version="1.0" encoding="utf-8" ?>
<svg baseProfile="full" height="200mm" version="1.1" viewBox="0,0,200,200" width="200mm" xmlns="http://www.w3.org/2000/svg" xmlns:ev="http://www.w3.org/2001/xml-events" xmlns:xlink="http://www.w3.org/1999/xlink"><defs /><rect fill="#1a1a1a" height="200" width="200" x="0" y="0" /><text alignment-baseline="middle" fill="#e1ed5e" style="dominant-baseline: central; font-size:9.0px; font-family:Arial;" text-anchor="middle" x="100.0" y="100.0">2017</text><line stroke="#e1ed5e" stroke-width="0.3" x1="100.0" x2="100.0" y1="15.0" y2="10.0" /><path d="M 100.0 14.0 a86.0,86.0 0 0,1 42.46469731375804,11.215312516191453" fill="none" id="id13" stroke="none" /><text fill="#e1ed5e" style="font-size:6.75px; font-family:Arial;" text-anchor="middle"><textPath startOffset="22.20632615414155" xlink:href="#id13">January</textPath></text><path d="M 100.36148047927253 79.00311137660856 l 0.542859263178336 -31.53242330006535 a52.53709586113031,52.53709586113031 0 0,0 0.9040717670679259,0.02334950647184315 l -1.0855576654411296 31.518407001451145" fill="#7dff26" stroke="none" /><line stroke="#e1ed5e" stroke-width="0.3" x1="143.23703022742887" x2="145.7803849466894" y1="26.81831364943548" y2="22.513508569990506" /><path d="M 143.74570117128098 25.957352633546492 a86.0,86.0 0 0,1 28.547481713284135,27.462654790039103" fill="none" id="id14" stroke="none" /><text fill="#e1ed5e" style="font-size:6.75px; font-family:Arial;" text-anchor="middle"><textPath startOffset="19.985693538727396" xlink:href="#id14">February</textPath></text><path d="M 111.90073688211348 82.69761687909136 l 8.899338776841914 -12.938675190030061 a36.70374306775622,36.70374306775622 0 0,0 0.5174683515754789,0.3625196495024174 l -9.120738268001045 12.783570697763707" fill="#ffc812" stroke="none" /><path d="M 112.19680574252982 82.90503203632743 l 4.486553226600374 -6.288325426763489 a28.724778089239745,28.724778089239745 0 0,0 0.40003313756648723,0.2906410870534702 l -4.59413168052065 6.210165104893345" fill="#ff5f08" stroke="none" /><path d="M 113.06298171725822 83.55741782278167 l 11.138538590655422 -14.020255105234105 a38.9062725085754,38.9062725085754 0 0,0 0.5207819512706816,0.4211027866371144 l -11.378223940490594 13.826446221332862" fill="#ffe415" stroke="none" /><path d="M 113.34407831869373 83.78471172551755 l 7.052087243464069 -8.569466160085026 a32.098093744345064,32.098093744345064 0 0,0 0.42360689329642565,0.35475859085367506 l -7.198551673719612 8.446806411837532" fill="#ff8c0c" stroke="none" /><path d="M 113.89432698308785 84.25364557470407 l 20.620335658879664 -23.36889825959227 a52.165744793796264,52.165744793796264 0 0,0 0.6681910558763277,0.599908527428079 l -21.019537702351982 23.010490723394895" fill="#81ff25" stroke="none" /><path d="M 115.19652480421416 85.50635884689758 l 5.274467836756131 -5.030508296102301 a28.288760160557416,28.288760160557416 0 0,0 0.33304313964904225,0.35526720061622186 l -5.360278298375635 4.938971678608024" fill="#ff5908" stroke="none" /><path d="M 117.2510076193507 88.02491185347247 l 12.913562598733506 -8.96417495242839 a36.719940571425624,36.719940571425624 0 0,0 0.3559657867828727,0.5223358682328316 l -13.065952851185111 8.740561060925153" fill="#ffc812" stroke="none" /><line stroke="#e1ed5e" stroke-width="0.3" x1="172.23445277983987" x2="176.4835382374775" y1="55.19839476539836" y2="52.563006222186495" /><path d="M 173.08426987136738 54.67131705675599 a86.0,86.0 0 0,1 12.851231095245387,41.99856678651699" fill="none" id="id15" stroke="none" /><text fill="#e1ed5e" style="font-size:6.75px; font-family:Arial;" text-anchor="middle"><textPath startOffset="22.20632615414155" xlink:href="#id15">March</textPath></text><path d="M 119.85752413597 93.16781622104841 l 2.3306584086390973 -0.8018868044550069 a23.464749696200244,23.464749696200244 0 0,0 0.1281205571968741,0.3830641585263288 l -2.3441162596077416 0.7616495430063641" fill="#ff1402" stroke="none" /><path d="M 120.18372546131832 94.20196356495316 l 16.249733596489804 -4.66794634285017 a37.90690879541904,37.90690879541904 0 0,0 0.17475667896813582,0.6286927550368174 l -16.327677046024302 4.387542284394401" fill="#ffd714" stroke="none" /><path d="M 120.37134235888165 94.90015583598534 l 30.48790751870153 -7.6324659658218055 a52.428761375344166,52.428761375344166 0 0,0 0.2116304422657921,0.8773448111000403 l -30.61477076122814 7.106535923062359" fill="#7eff26" stroke="none" /><line stroke="#e1ed5e" stroke-width="0.3" x1="184.98032266829074" x2="189.97916517819016" y1="98.17113171792111" y2="98.06355123074" /><path d="M 185.9800911702706 98.14961562048488 a86.0,86.0 0 0,1 -9.607161424134198,41.387399972396054" fill="none" id="id16" stroke="none" /><text fill="#e1ed5e" style="font-size:6.75px; font-family:Arial;" text-anchor="middle"><textPath startOffset="21.466115282336823" xlink:href="#id16">April</textPath></text><path d="M 120.81339534386255 102.79330883721812 l 7.723095372659812 1.0364954971890454 a28.792337585788527,28.792337585788527 0 0,0 -0.07015177504891654,0.49064135130205117 l -7.704109546594294 -1.169282320471506" fill="#ff6008" stroke="none" /><path d="M 120.70491114924044 103.5080841355445 l 31.768917782399047 5.382686053204345 a53.221692168664745,53.221692168664745 0 0,0 -0.1608145577538246,0.9019334427179285 l -31.671556782306034 -5.928738246655492" fill="#75ff27" stroke="none" /><path d="M 120.49622156327973 104.57218783832717 l 15.633289432296579 3.487390863467877 a37.01754143146054,37.01754143146054 0 0,0 -0.14408537558332848,0.6207160269483489 l -15.570943490782696 -3.755975547764791" fill="#ffcc13" stroke="none" /><path d="M 120.41448212921028 104.9243191809786 l 6.783334854004306 1.6362553662225212 a27.977891039923282,27.977891039923282 0 0,0 -0.11695915634242181,0.4671936904797207 l -6.754164383366823 -1.7527768960996377" fill="#ff5407" stroke="none" /><line stroke="#e1ed5e" stroke-width="0.3" x1="174.80103733775053" x2="179.2010983576182" y1="140.37084112569926" y2="142.7455964860345" /><path d="M 175.68104954172406 140.8457921977663 a86.0,86.0 0 0,1 -30.038265399797805,32.042727171017184" fill="none" id="id17" stroke="none" /><text fill="#e1ed5e" style="font-size:6.75px; font-family:Arial;" text-anchor="middle"><textPath startOffset="22.206326154141568" xlink:href="#id17">May</textPath></text><path d="M 117.35343817320211 111.8261652097733 l 6.3119613466597375 4.301527855072147 a28.638324288067913,28.638324288067913 0 0,0 -0.2811180090066134,0.4049714587458795 l -6.236982430490988 -4.409540576005047" fill="#ff5d08" stroke="none" /><path d="M 115.80600337817218 113.82643327865902 l 11.329248302301707 9.910354439469312 a36.052142445881756,36.052142445881756 0 0,0 -0.4126101613373901,0.4635718903128462 l -11.156979291315979 -10.103900499523025" fill="#ffc011" stroke="none" /><path d="M 112.04921762599082 117.19931262002967 l 17.501988989052457 24.982715844197966 a51.50337210088179,51.50337210088179 0 0,0 -0.7304726094739766,0.5024257216010704 l -17.069359494955595 -25.28028235516413" fill="#88ff25" stroke="none" /><path d="M 111.7513745106137 117.40417183066458 l 8.555870400470777 12.671525231044125 a36.28955427704287,36.28955427704287 0 0,0 -0.5207124226248745,0.34509980013521285 l -8.33648327910594 -12.816923052270656" fill="#ffc312" stroke="none" /><line stroke="#e1ed5e" stroke-width="0.3" x1="143.8653032363475" x2="146.44561519142675" y1="172.8068346515853" y2="177.08958963109032" /><path d="M 144.38136562736335 173.6633856474863 a86.0,86.0 0 0,1 -40.68145358897372,12.25698825130547" fill="none" id="id18" stroke="none" /><text fill="#e1ed5e" style="font-size:6.75px; font-family:Arial;" text-anchor="middle"><textPath startOffset="21.466115282336833" xlink:href="#id18">June</textPath></text><path d="M 110.8373102113329 117.98757091392108 l 3.8693219886919503 6.42223045231353 a28.49777944692949,28.49777944692949 0 0,0 -0.42235355086816573,0.24953392243615408 l -3.7582005667954026 -6.487882947043433" fill="#ff5b08" stroke="none" /><path d="M 110.5260780823613 118.17145234162733 l 4.013272954822014 6.928221286396781 a29.00666035268059,29.00666035268059 0 0,0 -0.43420378330300524,0.24655224018209293 l -3.89342040459781 -6.996276692373502" fill="#ff6209" stroke="none" /><path d="M 109.89434966115114 118.52300852407294 l 4.64045648992395 8.687303164142529 a30.84901379329921,30.84901379329921 0 0,0 -0.4705342745752075,0.24616129363455216 l -4.490231312822247 -8.765893876721798" fill="#ff7c0b" stroke="none" /><path d="M 109.2508944713604 118.85261126421891 l 5.864853083497966 11.952119402858473 a34.3135141833853,34.3135141833853 0 0,0 -0.5324923613695052,0.25562869296487245 l -5.6582480541282285 -12.051302372322905" fill="#ffa90f" stroke="none" /><path d="M 108.92500713936063 119.00905698771935 l 4.878445856483358 10.390429256736576 a32.47868695077477,32.47868695077477 0 0,0 -0.5081089580371713,0.23324790146422916 l -4.698868902678767 -10.47286422853488" fill="#ff910d" stroke="none" /><path d="M 108.2653958097858 119.30500536409082 l 3.8722560034191087 9.044203645835568 a30.838291830564934,30.838291830564934 0 0,0 -0.48978335551617574,0.20472948232836774 l -3.716001188405472 -9.10951817118391" fill="#ff7b0b" stroke="none" /><path d="M 106.91757812671514 119.82793768551818 l 3.9505396812510463 11.323479574665633 a32.99282925130717,32.99282925130717 0 0,0 -0.5378306689884026,0.18246136395366908 l -3.755039279325417 -11.389803925517425" fill="#ff980e" stroke="none" /><path d="M 103.7750983002368 120.6578951692458 l 1.0061558842077978 5.505833524541776 a26.597012816073775,26.597012816073775 0 0,0 -0.4510739747721783,0.07842499241268117 l -0.9112329379635694 -5.522337095475463" fill="#ff4106" stroke="none" /><path d="M 102.70371172650421 120.8252237178851 l 0.4611735500182998 3.552169507479264 a24.58198119105921,24.58198119105921 0 0,0 -0.42008566364466277,0.05086652359718316 l -0.3999604633222567 -3.559581559801798" fill="#ff2403" stroke="none" /><path d="M 101.26447882468166 120.96189622390904 l 0.18452768807477518 3.059007531292657 a24.064568084440516,24.064568084440516 0 0,0 -0.41369505747424773,0.021383309078086145 l -0.13184456218704788 -3.061730647132945" fill="#ff1d02" stroke="none" /><line stroke="#e1ed5e" stroke-width="0.3" x1="102.19456741930631" x2="102.32365962044197" y1="184.97166512339345" y2="189.96999836594603" /><path d="M 102.22038585953345 185.97133177190398 a86.0,86.0 0 0,1 -42.740103519485714,-10.115201625700543" fill="none" id="id19" stroke="none" /><text fill="#e1ed5e" style="font-size:6.75px; font-family:Arial;" text-anchor="middle"><textPath startOffset="22.20632615414155" xlink:href="#id19">July</textPath></text><path d="M 99.09653310690486 120.98055641714683 l -0.34217610917500313 7.946107619452057 a28.95347161870866,28.95347161870866 0 0,0 -0.4977404150097734,-0.025727494062390797 l 0.47890459259826546 -7.939040318627464" fill="#ff6209" stroke="none" /><path d="M 92.06813273071674 119.44442032107085 l -1.8579149861072057 4.554549223306589 a25.91891926373308,25.91891926373308 0 0,0 -0.4116523482588573,-0.17207071495819695 l 1.9360387938635255 -4.521893465328419" fill="#ff3705" stroke="none" /><line stroke="#e1ed5e" stroke-width="0.3" x1="58.666819895761336" x2="56.23545636021788" y1="174.27360380694188" y2="178.64263932499728" /><path d="M 58.180547188652646 175.14741091055294 a86.0,86.0 0 0,1 -31.652253787137756,-30.449443065178592" fill="none" id="id20" stroke="none" /><text fill="#e1ed5e" style="font-size:6.75px; font-family:Arial;" text-anchor="middle"><textPath startOffset="22.20632615414155" xlink:href="#id20">August</textPath></text><path d="M 89.7882731507175 118.34994917583269 l -7.873521102349096 14.148313423904755 a37.19157519484068,37.19157519484068 0 0,0 -0.5567246439352767,-0.3161227824471387 l 8.11589451320558 -14.010687475662984" fill="#ffce13" stroke="none" /><path d="M 85.70375840098266 115.38237550388516 l -2.717525641220623 2.9239852701961344 a24.991821072019075,24.991821072019075 0 0,0 -0.3125931347112328,-0.2955763199491771 l 2.7674546103226727 -2.876774313501026" fill="#ff2a04" stroke="none" /><path d="M 85.44109423537348 115.13401014063109 l -10.276791911285025 10.682744672778156 a35.82341005746058,35.82341005746058 0 0,0 -0.44071331878125675,-0.43133074028530904 l 10.459155182442077 -10.504263829570277" fill="#ffbd11" stroke="none" /><path d="M 84.9287848128048 114.62390073753433 l -3.9639538905429204 3.8463035331559627 a26.52331253103773,26.52331253103773 0 0,0 -0.31511393867725307,-0.3303957048941746 l 4.029574380599131 -3.777500711679288" fill="#ff4006" stroke="none" /><path d="M 84.67929136418377 114.36230785411682 l -3.8396339169745226 3.5994421455008987 a26.262962319377674,26.262962319377674 0 0,0 -0.3063431884192563,-0.33247502751457786 l 3.901023513389508 -3.532815863184977" fill="#ff3c05" stroke="none" /><line stroke="#e1ed5e" stroke-width="0.3" x1="26.63291911575756" x2="22.317208475507996" y1="142.92168965132927" y2="145.44649492493687" /><path d="M 25.769776987707644 143.4266507060508 a86.0,86.0 0 0,1 -11.730757126820373,-40.83630448921669" fill="none" id="id21" stroke="none" /><text fill="#e1ed5e" style="font-size:6.75px; font-family:Arial;" text-anchor="middle"><textPath startOffset="21.46611528233685" xlink:href="#id21">September</textPath></text><path d="M 79.18660465613746 102.79330883721812 l -3.553450488218314 0.4768988666851138 a24.58530931737619,24.58530931737619 0 0,0 -0.05268103876101577,-0.4199197122616757 l 3.561133036226178 -0.41566140013602954" fill="#ff2403" stroke="none" /><line stroke="#e1ed5e" stroke-width="0.3" x1="15.007084014347285" x2="10.007500721073583" y1="101.09737516637583" y2="101.16192664675087" /><path d="M 14.007167355692545 101.11028546245083 a86.0,86.0 0 0,1 10.666146001902534,-42.60595125391555" fill="none" id="id22" stroke="none" /><text fill="#e1ed5e" style="font-size:6.75px; font-family:Arial;" text-anchor="middle"><textPath startOffset="22.20632615414155" xlink:href="#id22">October</textPath></text><path d="M 79.00175016825051 100.2711162175752 l -5.517141572511899 0.07123386791525366 a26.517601416836598,26.517601416836598 0 0,0 -0.0019644525904786397,-0.45646959871234377 l 5.51755032239188 0.023745209000765467" fill="#ff4006" stroke="none" /><path d="M 79.00486145842228 99.54816195383935 l -2.8347785672589914 -0.061007494977555525 a23.8354349648395,23.8354349648395 0 0,0 0.01235845231808445,-0.4101168667574567 l 2.833308420485262 0.1097945091600066" fill="#ff1a02" stroke="none" /><path d="M 79.08570108090925 98.10471618934814 l -2.374564885294553 -0.2151864808785472 a23.384295203205095,23.384295203205095 0 0,0 0.03977877326446469,-0.40056681818208995 l 2.3705089863478594 0.25602882976506747" fill="#ff1302" stroke="none" /><path d="M 80.2630227832202 92.82701384747504 l -4.398880043914954 -1.59867974183984 a25.680376326506483,25.680376326506483 0 0,0 0.154565796820088,-0.4141594901984372 l 4.370709658593238 1.6741623690676184" fill="#ff3404" stroke="none" /><path d="M 81.26839172434947 90.50648371742162 l -13.644316211104885 -6.915185082273661 a36.29663850624443,36.29663850624443 0 0,0 0.2872456632254854,-0.5548671928933491 l 13.523261114719284 7.149024997427346" fill="#ffc312" stroke="none" /><line stroke="#e1ed5e" stroke-width="0.3" x1="26.266209847984243" x2="21.928928074336255" y1="57.711370442889674" y2="55.22380399835377" /><path d="M 25.398753493254645 57.213857153982495 a86.0,86.0 0 0,1 29.58750427330803,-30.492523968695096" fill="none" id="id23" stroke="none" /><text fill="#e1ed5e" style="font-size:6.75px; font-family:Arial;" text-anchor="middle"><textPath startOffset="21.46611528233685" xlink:href="#id23">November</textPath></text><path d="M 85.57189188830299 84.74124197986013 l -1.7063466249691077 -1.8045838059515036 a23.48357434300765,23.48357434300765 0 0,0 0.2961078736355151,-0.2751999975423455 l 1.6750308675387364 1.8336883895684966" fill="#ff1502" stroke="none" /><path d="M 86.93701828274178 83.55741782278169 l -1.6012562295537502 -2.015526601130879 a23.574173458131927,23.574173458131927 0 0,0 0.3198986654567782,-0.24968598253756552 l 1.5663250089375464 2.042790972891666" fill="#ff1602" stroke="none" /><path d="M 87.80319425747018 82.90503203632743 l -0.6176882343068288 -0.8657480327158611 a22.063512299389373,22.063512299389373 0 0,0 0.3110628068220051,-0.2179193748932159 l 0.6026942879011634 0.8762522503730196" fill="#ff0000" stroke="none" /><line stroke="#e1ed5e" stroke-width="0.3" x1="56.762969772571076" x2="54.21961505331055" y1="26.818313649435495" y2="22.513508569990535" /><path d="M 56.25429882871897 25.957352633546506 a86.0,86.0 0 0,1 42.265352541879196,-11.944610805530505" fill="none" id="id24" stroke="none" /><text fill="#e1ed5e" style="font-size:6.75px; font-family:Arial;" text-anchor="middle"><textPath startOffset="22.20632615414155" xlink:href="#id24">December</textPath></text><path d="M 89.94658935756843 81.56283822128135 l -13.298936333156796 -24.38919978304866 a48.77939476753982,48.77939476753982 0 0,0 0.7406453166181589,-0.3956270779657753 l 12.877145970010332 24.614505587516184" fill="#a6ff21" stroke="none" /><path d="M 91.23893434514133 80.91482961587045 l -3.5877878195573794 -7.81566358886758 a29.599815042924746,29.599815042924746 0 0,0 0.464883251963464,-0.20857956413447043 l 3.452722449127141 7.87626348351858" fill="#ff6b09" stroke="none" /><path d="M 92.23578459929587 80.48803036053334 l -23.29264620211241 -58.53590891839998 a84.0,84.0 0 0,0 1.3480673400012946,-0.5230291844377941 l 22.28159569711144 58.92818080672833" fill="#4dd2ff" stroke="none" /><path d="M 93.94186890950719 79.89281104454417 l -9.366654853347976 -31.08831687587079 a53.46871831958108,53.46871831958108 0 0,0 0.8835318239374069,-0.25792716744518784 l 8.830132811687147 31.24494237223468" fill="#73ff27" stroke="none" /><path d="M 94.63758080256005 79.69619591428918 l -8.135417285510739 -30.80324619145278 a52.85945684315156,52.85945684315156 0 0,0 0.8817237086235654,-0.22477100572546266 l 7.603984688202175 30.938720193347102" fill="#79ff26" stroke="none" /><path d="M 97.11714578562143 79.19881850522333 l -2.2303747360875255 -16.09322783487409 a37.24704753512292,37.24704753512292 0 0,0 0.6358341879956794,-0.0825495261652252 l 1.9530258195839885 16.12923568420345" fill="#ffcf13" stroke="none" /></svg>