<?xml version="1.0" encoding="utf-8" ?>
<svg baseProfile="full" height="200mm" version="1.1" viewBox="0,0,200,200" width="200mm" xmlns="http://www.w3.org/2000/svg" xmlns:ev="http://www.w3.org/2001/xml-events" xmlns:xlink="http://www.w3.org/1999/xlink"><defs /><rect fill="#1a1a1a" height="200" width="200" x="0" y="0" /><text alignment-baseline="middle" fill="#e1ed5e" style="dominant-baseline: central; font-size:9.0px; font-family:Arial;" text-anchor="middle" x="100.0" y="100.0">2018</text><line stroke="#e1ed5e" stroke-width="0.3" x1="100.0" x2="100.0" y1="15.0" y2="10.0" /><path d="M 100.0 14.0 a86.0,86.0 0 0,1 42.46469731375804,11.215312516191453" fill="none" id="id25" stroke="none" /><text fill="#e1ed5e" style="font-size:6.75px; font-family:Arial;" text-anchor="middle"><textPath startOffset="22.20632615414155" xlink:href="#id25">January</textPath></text><line stroke="#e1ed5e" stroke-width="0.3" x1="143.23703022742887" x2="145.7803849466894" y1="26.81831364943548" y2="22.513508569990506" /><path d="M 143.74570117128098 25.957352633546492 a86.0,86.0 0 0,1 28.547481713284135,27.462654790039103" fill="none" id="id26" stroke="none" /><text fill="#e1ed5e" style="font-size:6.75px; font-family:Arial;" text-anchor="middle"><textPath startOffset="19.985693538727396" xlink:href="#id26">February</textPath></text><line stroke="#e1ed5e" stroke-width="0.3" x1="172.23445277983987" x2="176.4835382374775" y1="55.19839476539836" y2="52.563006222186495" /><path d="M 173.08426987136738 54.67131705675599 a86.0,86.0 0 0,1 12.851231095245387,41.99856678651699" fill="none" id="id27" stroke="none" /><text fill="#e1ed5e" style="font-size:6.75px; font-family:Arial;" text-anchor="middle"><textPath startOffset="22.20632615414155" xlink:href="#id27">March</textPath></text><path d="M 119.85752413597 93.16781622104841 l 3.2582324254078014 -1.1210281086654645 a24.445690432757544,24.445690432757544 0 0,0 0.13347662003035854,0.3990781046659021 l -3.2770463392099303 1.0647769010772483" fill="#ff2103" stroke="none" /><path d="M 120.28053869075195 94.5502522615342 l 39.08895293711922 -10.503908999478504 a61.47565127319938,61.47565127319938 0 0,0 0.2658197445842191,1.0243119105811824 l -39.26396901357374 9.829500663348473" fill="#31ff3f" stroke="none" /><line stroke="#e1ed5e" stroke-width="0.3" x1="184.98032266829074" x2="189.97916517819016" y1="98.17113171792111" y2="98.06355123074" /><path d="M 185.9800911702706 98.14961562048488 a86.0,86.0 0 0,1 -9.607161424134198,41.387399972396054" fill="none" id="id28" stroke="none" /><text fill="#e1ed5e" style="font-size:6.75px; font-family:Arial;" text-anchor="middle"><textPath startOffset="21.466115282336823" xlink:href="#id28">April</textPath></text><line stroke="#e1ed5e" stroke-width="0.3" x1="174.80103733775053" x2="179.2010983576182" y1="140.37084112569926" y2="142.7455964860345" /><path d="M 175.68104954172406 140.8457921977663 a86.0,86.0 0 0,1 -30.038265399797805,32.042727171017184" fill="none" id="id29" stroke="none" /><text fill="#e1ed5e" style="font-size:6.75px; font-family:Arial;" text-anchor="middle"><textPath startOffset="22.206326154141568" xlink:href="#id29">May</textPath></text><path d="M 118.48025628344425 109.97397251340804 l 3.2472765232731944 1.7525864517137393 a24.690035784288792,24.690035784288792 0 0,0 -0.20507260439363645,0.37226634433900013 l -3.2166275094280485 -1.8082233144505444" fill="#ff2403" stroke="none" /><path d="M 116.0416608686014 113.55231037782055 l 1.843960954842755 1.557814455080805 a23.413913395182874,23.413913395182874 0 0,0 -0.262745908182663,0.3056328504699184 l -1.816872537089313 -1.5893244047122514" fill="#ff1202" stroke="none" /><path d="M 115.56566222782051 114.09645910891815 l 2.0430169646466085 1.8501818091294568 a23.75628210542161,23.75628210542161 0 0,0 -0.27710412544714175,0.30074179944342094 l -2.0108664312037448 -1.8850748633742127" fill="#ff1702" stroke="none" /><path d="M 114.29624159901734 115.38237550388516 l 4.549655352244821 4.89530808197178 a27.68306853485943,27.68306853485943 0 0,0 -0.3518392125758888,0.32139677866086164 l -4.464716590202069 -4.972897627219224" fill="#ff4e07" stroke="none" /><path d="M 112.63410532772338 116.77436683061366 l 2.1489373965560095 2.8531552690759443 a24.571894024711924,24.571894024711924 0 0,0 -0.34004579566016946,0.25155775028256094 l -2.0995066304772756 -2.8897229680982743" fill="#ff2203" stroke="none" /><line stroke="#e1ed5e" stroke-width="0.3" x1="143.8653032363475" x2="146.44561519142675" y1="172.8068346515853" y2="177.08958963109032" /><path d="M 144.38136562736335 173.6633856474863 a86.0,86.0 0 0,1 -40.68145358897372,12.25698825130547" fill="none" id="id30" stroke="none" /><text fill="#e1ed5e" style="font-size:6.75px; font-family:Arial;" text-anchor="middle"><textPath startOffset="21.466115282336833" xlink:href="#id30">June</textPath></text><path d="M 100.90346689309514 120.98055641714683 l 0.09572661320999086 2.222989712654701 a23.22504985271011,23.22504985271011 0 0,0 -0.3995589449107513,0.013761617946728227 l -0.05744731662458726 -2.224308129027523" fill="#ff0f01" stroke="none" /><line stroke="#e1ed5e" stroke-width="0.3" x1="102.19456741930631" x2="102.32365962044197" y1="184.97166512339345" y2="189.96999836594603" /><path d="M 102.22038585953345 185.97133177190398 a86.0,86.0 0 0,1 -42.740103519485714,-10.115201625700543" fill="none" id="id31" stroke="none" /><text fill="#e1ed5e" style="font-size:6.75px; font-family:Arial;" text-anchor="middle"><textPath startOffset="22.20632615414155" xlink:href="#id31">July</textPath></text><path d="M 100.54218724476979 120.99299961872073 l 0.33831935973057414 13.099419542496507 a34.10378770964746,34.10378770964746 0 0,0 -0.5869754097909333,0.010105313994761757 l -0.11278426004697291 -13.10330233377043" fill="#ffa50f" stroke="none" /><path d="M 96.93821686468263 120.77559828337769 l -0.1754452086782009 1.190475946580671 a22.203334533966046,22.203334533966046 0 0,0 -0.3776302287540557,-0.058978075373480314 l 0.19591130104077378 -1.187279563860085" fill="#ff0000" stroke="none" /><line stroke="#e1ed5e" stroke-width="0.3" x1="58.666819895761336" x2="56.23545636021788" y1="174.27360380694188" y2="178.64263932499728" /><path d="M 58.180547188652646 175.14741091055294 a86.0,86.0 0 0,1 -31.652253787137756,-30.449443065178592" fill="none" id="id32" stroke="none" /><text fill="#e1ed5e" style="font-size:6.75px; font-family:Arial;" text-anchor="middle"><textPath startOffset="22.20632615414155" xlink:href="#id32">August</textPath></text><path d="M 88.8546689885994 117.79835938074946 l -2.049851360329246 3.2734775800681444 a24.862323920472292,24.862323920472292 0 0,0 -0.3607620258081898,-0.23025539373526901 l 2.1058951881843595 -3.2377077575090714" fill="#ff2703" stroke="none" /><path d="M 88.54995079064634 117.60387380957326 l -3.1437158996452284 4.833304816305464 a26.765742372409974,26.765742372409974 0 0,0 -0.3840569230388098,-0.254531986606201 l 3.226447521424 -4.778474808607944" fill="#ff4206" stroke="none" /><path d="M 88.24862548938628 117.40417183066458 l -3.0949561643358767 4.583731787615632 a26.530764030399293,26.530764030399293 0 0,0 -0.3762859720070995,-0.2588129227051604 l 3.1733990209658662 -4.52977807554537" fill="#ff3e05" stroke="none" /><path d="M 86.51685102203217 116.09983520530335 l -17.836781161415576 21.298380501550444 a48.78078066198021,48.78078066198021 0 0,0 -0.6391084209349076,-0.5446620614818222 l 18.200755058927538 -20.98819404984567" fill="#a6ff21" stroke="none" /><path d="M 85.44109423537348 115.13401014063109 l -4.776144176777142 4.964810925563103 a27.88918723246458,27.88918723246458 0 0,0 -0.343103469033696,-0.3357989581572311 l 4.860897598186632 -4.8818618644833025" fill="#ff5107" stroke="none" /><path d="M 84.67929136418377 114.36230785411682 l -11.089929685138564 10.396189106169448 a36.20089761667231,36.20089761667231 0 0,0 -0.42226380499917787,-0.4582839622122545 l 11.26723989813347 -10.20375388915585" fill="#ffc011" stroke="none" /><path d="M 83.06392112726016 112.41649034213515 l -24.23253475359459 17.765802580062388 a51.04728742994816,51.04728742994816 0 0,0 -0.513438983315033,-0.7131218411820632 l 24.53475352928523 -17.346047133429185" fill="#8dff24" stroke="none" /><line stroke="#e1ed5e" stroke-width="0.3" x1="26.63291911575756" x2="22.317208475507996" y1="142.92168965132927" y2="145.44649492493687" /><path d="M 25.769776987707644 143.4266507060508 a86.0,86.0 0 0,1 -11.730757126820373,-40.83630448921669" fill="none" id="id33" stroke="none" /><text fill="#e1ed5e" style="font-size:6.75px; font-family:Arial;" text-anchor="middle"><textPath startOffset="21.46611528233685" xlink:href="#id33">September</textPath></text><path d="M 81.69416730710424 110.29060199501025 l -6.272764537192885 3.526227096225883 a28.195960844336376,28.195960844336376 0 0,0 -0.23419241568731428,-0.4251272602579772 l 6.3325333623317155 -3.417729317570083" fill="#ff5607" stroke="none" /><path d="M 80.58989483394504 108.01547362559985 l -7.0189607093323145 2.898505390025638 a28.593888525331305,28.593888525331305 0 0,0 -0.1839504565708541,-0.45654994754171146 l 7.067813780160557 -2.7772560746411212" fill="#ff5b08" stroke="none" /><path d="M 80.32549172779594 107.34259656027581 l -4.791657716324719 1.7882637257883294 a26.114476593297166,26.114476593297166 0 0,0 -0.15354782361043512,-0.4224976644097572 l 4.821729800940379 -1.7055182643724551" fill="#ff3805" stroke="none" /><path d="M 79.86692584326677 105.97154293290107 l -20.38967566596188 6.047651872702189 a42.26765071503001,42.26765071503001 0 0,0 -0.20088679823268205,-0.6993132985199998 l 20.49075510108067 -5.695781098677593" fill="#f2ff19" stroke="none" /><path d="M 79.18660465613746 102.79330883721812 l -3.235571806489664 0.4342372386246196 a24.264580661334488,24.264580661334488 0 0,0 -0.051993786119912754,-0.4144416325181795 l 3.242567101856425 -0.3784778518190315" fill="#ff1e03" stroke="none" /><line stroke="#e1ed5e" stroke-width="0.3" x1="15.007084014347285" x2="10.007500721073583" y1="101.09737516637583" y2="101.16192664675087" /><path d="M 14.007167355692545 101.11028546245083 a86.0,86.0 0 0,1 10.666146001902534,-42.60595125391555" fill="none" id="id34" stroke="none" /><text fill="#e1ed5e" style="font-size:6.75px; font-family:Arial;" text-anchor="middle"><textPath startOffset="22.20632615414155" xlink:href="#id34">October</textPath></text><path d="M 79.00486145842228 99.54816195383935 l -62.98541562473312 -1.3555141384819447 a84.0,84.0 0 0,0 0.04355322217741975,-1.4453194103000224 l 62.95275070810006 2.4395036962069616" fill="#4dd2ff" stroke="none" /><path d="M 79.21141760316559 97.0276538004421 l -1.3636713578936934 -0.19497738232975917 a22.377539746054463,22.377539746054463 0 0,0 0.05780236431196325,-0.38084536036767164 l 1.360113100142428 0.21842185508952286" fill="#ff0300" stroke="none" /><path d="M 79.26566170972629 96.67025291283419 l -10.175828539073251 -1.6341459738491897 a31.306207814733078,31.306207814733078 0 0,0 0.09002493394251321,-0.5313322561480456 l 10.146191743610514 1.8090640183130633" fill="#ff800b" stroke="none" /><path d="M 79.3925641242962 95.95851677861259 l -44.47230814554483 -8.721807422848608 a66.31948936730808,66.31948936730808 0 0,0 0.22934133392437828,-1.118349793132199 l 44.31558751570546 9.486032872144209" fill="#37ff77" stroke="none" /><path d="M 80.14247586403 93.16781622104843 l -7.3037883311935135 -2.512942893564738 a28.724001940263612,28.724001940263612 0 0,0 0.16488523527199198,-0.4661527637984985 l 7.259450015111712 2.6382932837898476" fill="#ff5d08" stroke="none" /><line stroke="#e1ed5e" stroke-width="0.3" x1="26.266209847984243" x2="21.928928074336255" y1="57.711370442889674" y2="55.22380399835377" /><path d="M 25.398753493254645 57.213857153982495 a86.0,86.0 0 0,1 29.58750427330803,-30.492523968695096" fill="none" id="id35" stroke="none" /><text fill="#e1ed5e" style="font-size:6.75px; font-family:Arial;" text-anchor="middle"><textPath startOffset="21.46611528233685" xlink:href="#id35">November</textPath></text><path d="M 87.51073957382395 83.11751280151077 l -12.754057359732274 -17.240429197327913 a42.44524138459201,42.44524138459201 0 0,0 0.5911099829246775,-0.4294665413233022 l 12.455402060453814 17.457414973467884" fill="#f0ff19" stroke="none" /><path d="M 89.00827224532344 82.1063720568725 l -1.0717613424158894 -1.7447392378197708 a23.047629698721188,23.047629698721188 0 0,0 0.3398295446901321,-0.20474349829707902 l 1.041569731508108 1.762929345575469" fill="#ff0c01" stroke="none" /><line stroke="#e1ed5e" stroke-width="0.3" x1="56.762969772571076" x2="54.21961505331055" y1="26.818313649435495" y2="22.513508569990535" /><path d="M 56.25429882871897 25.957352633546506 a86.0,86.0 0 0,1 42.265352541879196,-11.944610805530505" fill="none" id="id36" stroke="none" /><text fill="#e1ed5e" style="font-size:6.75px; font-family:Arial;" text-anchor="middle"><textPath startOffset="22.20632615414155" xlink:href="#id36">December</textPath></text><path d="M 89.63071344664047 81.73862282372117 l -19.81030285743468 -34.88797523284974 a61.120056270539074,61.120056270539074 0 0,0 0.919350164305922,-0.5116173710769456 l 19.206828604056714 35.22380800148687" fill="#30ff3b" stroke="none" /><path d="M 91.90106846888425 80.62456947434976 l -17.38921934971829 -41.60099515736281 a66.08910896963413,66.08910896963413 0 0,0 1.0533852769841805,-0.42970230341099325 l 16.67055020314573 41.894158346957376" fill="#37ff75" stroke="none" /><path d="M 96.75951476605007 79.25152402106235 l -6.699541551222062 -42.896438931149866 a64.41645229599513,64.41645229599513 0 0,0 1.0970153100850497,-0.1616715403228933 l 5.960157260708364 43.00540495563373" fill="#35ff62" stroke="none" /></svg>