<?xml version="1.0" encoding="utf-8" ?>
<svg baseProfile="full" height="200mm" version="1.1" viewBox="0,0,200,200" width="200mm" xmlns="http://www.w3.org/2000/svg" xmlns:ev="http://www.w3.org/2001/xml-events" xmlns:xlink="http://www.w3.org/1999/xlink"><defs /><rect fill="#1a1a1a" height="200" width="200" x="0" y="0" /><text alignment-baseline="middle" fill="#e1ed5e" style="dominant-baseline: central; font-size:9.0px; font-family:Arial;" text-anchor="middle" x="100.0" y="100.0">2024</text><line stroke="#e1ed5e" stroke-width="0.3" x1="100.0" x2="100.0" y1="15.0" y2="10.0" /><path d="M 100.0 14.0 a86.0,86.0 0 0,1 42.35913384403234,11.155469271406648" fill="none" id="id97" stroke="none" /><text fill="#e1ed5e" style="font-size:6.75px; font-family:Arial;" text-anchor="middle"><textPath startOffset="22.145653131862478" xlink:href="#id97">January</textPath></text><path d="M 100.0 79.0 l 0.0 -28.102316735786587 a49.10231673578659,49.10231673578659 0 0,0 0.842906560806599,0.0072353390595137675 l -0.4824136359577442 28.09817579492151" fill="#ffae10" stroke="none" /><path d="M 100.36049292484886 79.00309439819443 l 0.8414903598556517 -49.01259479121964 a70.01981797389726,70.01981797389726 0 0,0 1.2016290547134654,0.030949701977719367 l -1.6827327286398583 48.99092737189188" fill="#34ff60" stroke="none" /><path d="M 101.44090949804482 79.04949213459386 l 3.631660579929265 -52.80354779223413 a73.92828750313546,73.92828750313546 0 0,0 1.2653389853236916,0.0979452400270904 l -4.53756856002819 52.73342478521199" fill="#3bff9e" stroke="none" /><path d="M 101.80034050326958 79.07731436759882 l 4.200752685929711 -48.81911377739611 a69.99951217245629,69.99951217245629 0 0,0 1.1963264515014602,0.1132933587731102 l -5.038178700816184 48.73980866311781" fill="#34ff60" stroke="none" /><path d="M 102.15924093988457 79.11130261209362 l 5.090920158543725 -49.25003442343827 a70.51245660205643,70.51245660205643 0 0,0 1.2029562709737476,0.13479375928927512 l -5.93561233111827 49.15538490364202" fill="#35ff68" stroke="none" /><path d="M 102.51750503828377 79.15144685158666 l 5.846951676782082 -48.42114749954879 a69.77288559316216,69.77288559316216 0 0,0 1.1878740014396159,0.153794071552371 l -6.677303500112489 48.31364183179602" fill="#34ff5c" stroke="none" /><line stroke="#e1ed5e" stroke-width="0.3" x1="143.13028292997686" x2="145.6673583964461" y1="26.7553504044142" y2="22.446841604673864" /><path d="M 143.63769802327073 25.89364864446614 a86.0,86.0 0 0,1 29.32050498858742,28.57503671076993" fill="none" id="id98" stroke="none" /><text fill="#e1ed5e" style="font-size:6.75px; font-family:Arial;" text-anchor="middle"><textPath startOffset="20.669276256404974" xlink:href="#id98">February</textPath></text><line stroke="#e1ed5e" stroke-width="0.3" x1="172.87174338648825" x2="177.1583165268699" y1="56.24261187166439" y2="53.66864786411523" /><path d="M 173.72905801456457 55.72781907015455 a86.0,86.0 0 0,1 12.242430191666344,42.057860355516425" fill="none" id="id99" stroke="none" /><text fill="#e1ed5e" style="font-size:6.75px; font-family:Arial;" text-anchor="middle"><textPath startOffset="22.145653131862474" xlink:href="#id99">March</textPath></text><path d="M 118.36410011445183 89.81374322990088 l 42.41899867895087 -23.5291035107269 a69.5076299250266,69.5076299250266 0 0,0 0.5698124632766285,1.0483907531137238 l -42.81665649184284 22.797457924138577" fill="#34ff58" stroke="none" /><path d="M 118.53625476483649 90.13048839642627 l 53.68930395376159 -28.586530293306566 a81.82541469854138,81.82541469854138 0 0,0 0.6495064944298007,1.2455143437105316 l -54.17211851716633 27.660669706491536" fill="#49eeff" stroke="none" /><path d="M 118.70294669586156 90.45014215332178 l 32.81827223187808 -16.757243641044646 a57.8489376608199,57.8489376608199 0 0,0 0.44400460917998896,0.8883066452563574 l -33.10109675426981 16.19140513962454" fill="#b9ff1f" stroke="none" /><path d="M 120.86939407059847 97.66154086499901 l 48.948608024076755 -5.484793626123821 a70.25494075334859,70.25494075334859 0 0,0 0.12400869381280616,1.1996716210205423 l -49.03554911037123 4.643717482820348" fill="#35ff64" stroke="none" /><path d="M 120.9064616781168 98.02013634271609 l 62.06678774496275 -5.877789330043891 a83.3444829025523,83.3444829025523 0 0,0 0.12266076355466536,1.425504003616942 l -62.15854213121516 4.811464279051287" fill="#4cdaff" stroke="none" /><line stroke="#e1ed5e" stroke-width="0.3" x1="184.99686870605535" x2="189.99668451229388" y1="99.2704041080226" y2="99.22748670261217" /><path d="M 185.99683186730306 99.26182062694052 a86.0,86.0 0 0,1 -10.086455211305974,41.156179273409016" fill="none" id="id100" stroke="none" /><text fill="#e1ed5e" style="font-size:6.75px; font-family:Arial;" text-anchor="middle"><textPath startOffset="21.40746469413373" xlink:href="#id100">April</textPath></text><path d="M 120.99922638620191 99.81974689727618 l 46.25759316722814 -0.39706580326255136 a67.25929730202256,67.25929730202256 0 0,0 0.0,1.154637811972751 l -46.25759316722814 -0.39706580326254576" fill="#30ff32" stroke="none" /><path d="M 120.99922638620191 100.18025310272382 l 47.992799565181265 0.41196046325358254 a68.99456762516928,68.99456762516928 0 0,0 -0.020332266717555312,1.1842526038987027 l -47.97865586686505 -1.2357599831213562" fill="#33ff4f" stroke="none" /><path d="M 120.77682067341334 103.0534771498775 l 18.95934932537005 2.7863714497783056 a40.163005836703945,40.163005836703945 0 0,0 -0.10610398262201844,0.6812636822947654 l -18.908723850609764 -3.1114233140045218" fill="#ff0000" stroke="none" /><path d="M 120.7213421655516 103.40968896794604 l 48.653816057791715 8.005966917361214 a70.3081060604371,70.3081060604371 0 0,0 -0.20618750207177927,1.1892347197535946 l -48.5092137382277 -8.839994670035397" fill="#35ff65" stroke="none" /><path d="M 120.43855184770803 104.8234425847677 l 37.424537998433514 8.832089065896533 a59.452592131924256,59.452592131924256 0 0,0 -0.24294161837420128,0.9912847069973145 l -37.26740885354302 -9.473229597501946" fill="#a0ff22" stroke="none" /><path d="M 120.35273937422433 105.17358676015961 l 50.46181376855605 12.827195730579197 a73.0666073325603,73.0666073325603 0 0,0 -0.3194420550018696,1.212973514069886 l -50.23418223274945 -13.691549749021886" fill="#3aff91" stroke="none" /><path d="M 120.26092885502905 105.52220625578681 l 60.78278656508717 16.566618767360417 a84.0,84.0 0 0,0 -0.39112603170168114,1.387968304387966 l -60.48944204131091 -17.60759499565139" fill="#4dd2ff" stroke="none" /><path d="M 120.16314734710363 105.8691983318838 l 51.37559915975358 14.954688159399405 a74.50789555727783,74.50789555727783 0 0,0 -0.3680111007612414,1.224989265310373 l -51.111311738988704 -15.834415028300501" fill="#3cffa7" stroke="none" /><path d="M 119.58574465831526 107.57618678355244 l 45.43638991542784 17.575771704113016 a69.71727906545985,69.71727906545985 0 0,0 -0.4413479741294622,1.1124852046416036 l -45.12798326633225 -18.353157925968183" fill="#34ff5b" stroke="none" /><line stroke="#e1ed5e" stroke-width="0.3" x1="174.33088141563837" x2="178.70328620479359" y1="141.23008692659167" y2="143.65538615756765" /><path d="M 175.20536237346943 141.71514677278685 a86.0,86.0 0 0,1 -30.301960400862466,31.631185727798858" fill="none" id="id101" stroke="none" /><text fill="#e1ed5e" style="font-size:6.75px; font-family:Arial;" text-anchor="middle"><textPath startOffset="22.145653131862474" xlink:href="#id101">May</textPath></text><line stroke="#e1ed5e" stroke-width="0.3" x1="143.1302829299769" x2="145.66735839644613" y1="173.24464959558577" y2="177.55315839532614" /><path d="M 143.63769802327073 174.10635135553383 a86.0,86.0 0 0,1 -40.68552437913181,11.842963189579606" fill="none" id="id102" stroke="none" /><text fill="#e1ed5e" style="font-size:6.75px; font-family:Arial;" text-anchor="middle"><textPath startOffset="21.407464694133747" xlink:href="#id102">June</textPath></text><line stroke="#e1ed5e" stroke-width="0.3" x1="101.45913802915013" x2="101.54496967792366" y1="184.9874750549273" y2="189.98673829345242" /><path d="M 101.47630435890484 185.9873277026323 a86.0,86.0 0 0,1 -42.54439059252881,-10.42667462771756" fill="none" id="id103" stroke="none" /><text fill="#e1ed5e" style="font-size:6.75px; font-family:Arial;" text-anchor="middle"><textPath startOffset="22.145653131862474" xlink:href="#id103">July</textPath></text><line stroke="#e1ed5e" stroke-width="0.3" x1="58.13341422392154" x2="55.67067388415222" y1="173.97424548756322" y2="178.32567169271397" /><path d="M 57.64086615596768 174.84453072859336 a86.0,86.0 0 0,1 -31.369924170532247,-30.572349798747897" fill="none" id="id104" stroke="none" /><text fill="#e1ed5e" style="font-size:6.75px; font-family:Arial;" text-anchor="middle"><textPath startOffset="22.145653131862474" xlink:href="#id104">August</textPath></text><line stroke="#e1ed5e" stroke-width="0.3" x1="26.387840678322732" x2="22.057713659400548" y1="142.50000000000003" y2="145.00000000000006" /><path d="M 25.521815274538298 143.00000000000003 a86.0,86.0 0 0,1 -11.493303480769221,-40.785679425670985" fill="none" id="id105" stroke="none" /><text fill="#e1ed5e" style="font-size:6.75px; font-family:Arial;" text-anchor="middle"><textPath startOffset="21.40746469413373" xlink:href="#id105">September</textPath></text><line stroke="#e1ed5e" stroke-width="0.3" x1="15.003131293944662" x2="10.003315487706104" y1="100.72959589197737" y2="100.7725132973878" /><path d="M 14.003168132696942 100.73817937305945 a86.0,86.0 0 0,1 10.791469493833604,-42.45332614584628" fill="none" id="id106" stroke="none" /><text fill="#e1ed5e" style="font-size:6.75px; font-family:Arial;" text-anchor="middle"><textPath startOffset="22.145653131862435" xlink:href="#id106">October</textPath></text><line stroke="#e1ed5e" stroke-width="0.3" x1="26.387840678322718" x2="22.05771365940052" y1="57.49999999999999" y2="54.99999999999999" /><path d="M 25.521815274538284 56.99999999999999 a86.0,86.0 0 0,1 29.574782752854787,-30.34633250058573" fill="none" id="id107" stroke="none" /><text fill="#e1ed5e" style="font-size:6.75px; font-family:Arial;" text-anchor="middle"><textPath startOffset="21.40746469413373" xlink:href="#id107">November</textPath></text><line stroke="#e1ed5e" stroke-width="0.3" x1="56.869717070023135" x2="54.33264160355391" y1="26.7553504044142" y2="22.446841604673864" /><path d="M 56.362301976729285 25.89364864446614 a86.0,86.0 0 0,1 42.16139366436587,-11.88097634709845" fill="none" id="id108" stroke="none" /><text fill="#e1ed5e" style="font-size:6.75px; font-family:Arial;" text-anchor="middle"><textPath startOffset="22.145653131862474" xlink:href="#id108">December</textPath></text></svg>