<?xml version="1.0" encoding="utf-8" ?>
<svg baseProfile="full" height="200mm" version="1.1" viewBox="0,0,200,200" width="200mm" xmlns="http://www.w3.org/2000/svg" xmlns:ev="http://www.w3.org/2001/xml-events" xmlns:xlink="http://www.w3.org/1999/xlink"><defs /><rect fill="#1a1a1a" height="200" width="200" x="0" y="0" /><text alignment-baseline="middle" fill="#e1ed5e" style="dominant-baseline: central; font-size:9.0px; font-family:Arial;" text-anchor="middle" x="100.0" y="100.0">2019</text><line stroke="#e1ed5e" stroke-width="0.3" x1="100.0" x2="100.0" y1="15.0" y2="10.0" /><path d="M 100.0 14.0 a86.0,86.0 0 0,1 42.46469731375804,11.215312516191453" fill="none" id="id37" stroke="none" /><text fill="#e1ed5e" style="font-size:6.75px; font-family:Arial;" text-anchor="middle"><textPath startOffset="22.20632615414155" xlink:href="#id37">January</textPath></text><line stroke="#e1ed5e" stroke-width="0.3" x1="143.23703022742887" x2="145.7803849466894" y1="26.81831364943548" y2="22.513508569990506" /><path d="M 143.74570117128098 25.957352633546492 a86.0,86.0 0 0,1 28.547481713284135,27.462654790039103" fill="none" id="id38" stroke="none" /><text fill="#e1ed5e" style="font-size:6.75px; font-family:Arial;" text-anchor="middle"><textPath startOffset="19.985693538727396" xlink:href="#id38">February</textPath></text><path d="M 112.77801427241765 83.33499621200491 l 2.209943173901629 -2.8821936319027466 a24.631926343368647,24.631926343368647 0 0,0 0.33425224340813714,0.26088917780128357 l -2.259227972469197 2.843726064878239" fill="#ff0000" stroke="none" /><line stroke="#e1ed5e" stroke-width="0.3" x1="172.23445277983987" x2="176.4835382374775" y1="55.19839476539836" y2="52.563006222186495" /><path d="M 173.08426987136738 54.67131705675599 a86.0,86.0 0 0,1 12.851231095245387,41.99856678651699" fill="none" id="id39" stroke="none" /><text fill="#e1ed5e" style="font-size:6.75px; font-family:Arial;" text-anchor="middle"><textPath startOffset="22.20632615414155" xlink:href="#id39">March</textPath></text><path d="M 118.21658344932153 89.55222093294921 l 7.416798533366338 -4.25376540430933 a29.5500538360553,29.5500538360553 0 0,0 0.24926505887878211,0.44341472600264886 l -7.488921233537552 4.125467168371887" fill="#ff4906" stroke="none" /><path d="M 119.196687751892 91.48605970444005 l 3.9703362259491146 -1.760887399843129 a25.343304523287557,25.343304523287557 0 0,0 0.17343182396583015,0.40030456139889053 l -4.000058759757625 1.6922836938576356" fill="#ff0b01" stroke="none" /><line stroke="#e1ed5e" stroke-width="0.3" x1="184.98032266829074" x2="189.97916517819016" y1="98.17113171792111" y2="98.06355123074" /><path d="M 185.9800911702706 98.14961562048488 a86.0,86.0 0 0,1 -9.607161424134198,41.387399972396054" fill="none" id="id40" stroke="none" /><text fill="#e1ed5e" style="font-size:6.75px; font-family:Arial;" text-anchor="middle"><textPath startOffset="21.466115282336823" xlink:href="#id40">April</textPath></text><path d="M 119.41010516605496 108.01547362559984 l 10.064624078177024 4.156223171386426 a31.889024239360943,31.889024239360943 0 0,0 -0.2138827511832698,0.5055556438539263 l -9.991590345801447 -4.328853340906515" fill="#ff6b09" stroke="none" /><line stroke="#e1ed5e" stroke-width="0.3" x1="174.80103733775053" x2="179.2010983576182" y1="140.37084112569926" y2="142.7455964860345" /><path d="M 175.68104954172406 140.8457921977663 a86.0,86.0 0 0,1 -30.038265399797805,32.042727171017184" fill="none" id="id41" stroke="none" /><text fill="#e1ed5e" style="font-size:6.75px; font-family:Arial;" text-anchor="middle"><textPath startOffset="22.206326154141568" xlink:href="#id41">May</textPath></text><path d="M 117.75023020441432 111.22182372390056 l 6.054610533920164 3.8277685047502343 a28.163108294826685,28.163108294826685 0 0,0 -0.26258093506250085,0.40753144237479955 l -5.987824735480613 -3.9314215470464866" fill="#ff3505" stroke="none" /><path d="M 115.56566222782051 114.09645910891815 l 6.349854053442704 5.750507540371216 a29.56673703762926,29.56673703762926 0 0,0 -0.3448799257720578,0.37429904481298276 l -6.249927719674924 -5.858957839985533" fill="#ff4a06" stroke="none" /><path d="M 114.55890576462653 115.13401014063108 l 19.982393020550788 20.771735424090707 a49.82292530879164,49.82292530879164 0 0,0 -0.6231760525925175,0.5892518544142313 l -19.621881133567463 -21.11262191525086" fill="#aaff21" stroke="none" /><line stroke="#e1ed5e" stroke-width="0.3" x1="143.8653032363475" x2="146.44561519142675" y1="172.8068346515853" y2="177.08958963109032" /><path d="M 144.38136562736335 173.6633856474863 a86.0,86.0 0 0,1 -40.68145358897372,12.25698825130547" fill="none" id="id42" stroke="none" /><text fill="#e1ed5e" style="font-size:6.75px; font-family:Arial;" text-anchor="middle"><textPath startOffset="21.466115282336833" xlink:href="#id42">June</textPath></text><path d="M 106.2309692047433 120.05430185196036 l 18.692907614229917 60.16290555588107 a84.0,84.0 0 0,0 -1.3845001022390167,0.4171385235770977 l -17.654532537550654 -60.47575944856389" fill="#4dd2ff" stroke="none" /><path d="M 104.83641907484287 120.43548508189849 l 14.415213020441698 60.90908708964518 a83.59165484726134,83.59165484726134 0 0,0 -1.403065429169815,0.31933312369019495 l -13.364627441879021 -61.14819694691307" fill="#4cd6ff" stroke="none" /><line stroke="#e1ed5e" stroke-width="0.3" x1="102.19456741930631" x2="102.32365962044197" y1="184.97166512339345" y2="189.96999836594603" /><path d="M 102.22038585953345 185.97133177190398 a86.0,86.0 0 0,1 -42.740103519485714,-10.115201625700543" fill="none" id="id43" stroke="none" /><text fill="#e1ed5e" style="font-size:6.75px; font-family:Arial;" text-anchor="middle"><textPath startOffset="22.20632615414155" xlink:href="#id43">July</textPath></text><line stroke="#e1ed5e" stroke-width="0.3" x1="58.666819895761336" x2="56.23545636021788" y1="174.27360380694188" y2="178.64263932499728" /><path d="M 58.180547188652646 175.14741091055294 a86.0,86.0 0 0,1 -31.652253787137756,-30.449443065178592" fill="none" id="id44" stroke="none" /><text fill="#e1ed5e" style="font-size:6.75px; font-family:Arial;" text-anchor="middle"><textPath startOffset="22.20632615414155" xlink:href="#id44">August</textPath></text><path d="M 88.54995079064634 117.60387380957326 l -5.077850094177862 7.806938699338796 a30.313047483728184,30.313047483728184 0 0,0 -0.43495657929258275,-0.2882655032977785 l 5.2114813722104065 -7.718375174949699" fill="#ff5407" stroke="none" /><path d="M 83.28015986056508 112.70617746262583 l -7.666344383550194 5.826008587082447 a30.628873883479315,30.628873883479315 0 0,0 -0.31538804243426466,-0.42251382281798483 l 7.765493692679544 -5.6931818847551545" fill="#ff5908" stroke="none" /><line stroke="#e1ed5e" stroke-width="0.3" x1="26.63291911575756" x2="22.317208475507996" y1="142.92168965132927" y2="145.44649492493687" /><path d="M 25.769776987707644 143.4266507060508 a86.0,86.0 0 0,1 -11.730757126820373,-40.83630448921669" fill="none" id="id45" stroke="none" /><text fill="#e1ed5e" style="font-size:6.75px; font-family:Arial;" text-anchor="middle"><textPath startOffset="21.46611528233685" xlink:href="#id45">September</textPath></text><path d="M 81.51974371655577 109.97397251340807 l -4.774170853024626 2.5766660446716987 a26.425118914792005,26.425118914792005 0 0,0 -0.21259321716729665,-0.4021462490348155 l 4.817816578416808 -2.494104780550757" fill="#ff1b02" stroke="none" /><path d="M 80.73074385275274 108.34839909993369 l -5.6992889195783 2.4692151125546498 a27.211192917700775,27.211192917700775 0 0,0 -0.18250808681166714,-0.43139520520548524 l 5.740947987582274 -2.370745381683006" fill="#ff2703" stroke="none" /><line stroke="#e1ed5e" stroke-width="0.3" x1="15.007084014347285" x2="10.007500721073583" y1="101.09737516637583" y2="101.16192664675087" /><path d="M 14.007167355692545 101.11028546245083 a86.0,86.0 0 0,1 10.666146001902534,-42.60595125391555" fill="none" id="id46" stroke="none" /><text fill="#e1ed5e" style="font-size:6.75px; font-family:Arial;" text-anchor="middle"><textPath startOffset="22.20632615414155" xlink:href="#id46">October</textPath></text><line stroke="#e1ed5e" stroke-width="0.3" x1="26.266209847984243" x2="21.928928074336255" y1="57.711370442889674" y2="55.22380399835377" /><path d="M 25.398753493254645 57.213857153982495 a86.0,86.0 0 0,1 29.58750427330803,-30.492523968695096" fill="none" id="id47" stroke="none" /><text fill="#e1ed5e" style="font-size:6.75px; font-family:Arial;" text-anchor="middle"><textPath startOffset="21.46611528233685" xlink:href="#id47">November</textPath></text><line stroke="#e1ed5e" stroke-width="0.3" x1="56.762969772571076" x2="54.21961505331055" y1="26.818313649435495" y2="22.513508569990535" /><path d="M 56.25429882871897 25.957352633546506 a86.0,86.0 0 0,1 42.265352541879196,-11.944610805530505" fill="none" id="id48" stroke="none" /><text fill="#e1ed5e" style="font-size:6.75px; font-family:Arial;" text-anchor="middle"><textPath startOffset="22.20632615414155" xlink:href="#id48">December</textPath></text><path d="M 98.91598698831166 79.02799685794201 l -0.49362151032294305 -9.549914764728415 a30.562663552014747,30.562663552014747 0 0,0 0.5256183870671804,-0.022634233414763314 l 0.3291622908664385 9.556996724667371" fill="#ff5808" stroke="none" /></svg>