<?xml version="1.0" encoding="utf-8" ?>
<svg baseProfile="full" height="200mm" version="1.1" viewBox="0,0,200,200" width="200mm" xmlns="http://www.w3.org/2000/svg" xmlns:ev="http://www.w3.org/2001/xml-events" xmlns:xlink="http://www.w3.org/1999/xlink"><defs /><rect fill="#1a1a1a" height="200" width="200" x="0" y="0" /><text alignment-baseline="middle" fill="#e1ed5e" style="dominant-baseline: central; font-size:9.0px; font-family:Arial;" text-anchor="middle" x="100.0" y="100.0">2024</text><line stroke="#e1ed5e" stroke-width="0.3" x1="100.0" x2="100.0" y1="15.0" y2="10.0" /><path d="M 100.0 14.0 a86.0,86.0 0 0,1 42.35913384403234,11.155469271406648" fill="none" id="id97" stroke="none" /><text fill="#e1ed5e" style="font-size:6.75px; font-family:Arial;" text-anchor="middle"><textPath startOffset="22.145653131862478" xlink:href="#id97">January</textPath></text><path d="M 100.0 79.0 l 0.0 -28.397796756480517 a49.39779675648052,49.39779675648052 0 0,0 0.8479788682777587,0.007278878718681715 l -0.48748594342890395 28.39361227595627" fill="#ff0000" stroke="none" /><path d="M 100.36049292484886 79.00309439819443 l 0.8503381566861267 -49.52793459965369 a70.53523373002584,70.53523373002584 0 0,0 1.2104742440576035,0.03117752267917773 l -1.7004257148144715 49.50603935962447" fill="#32ff2f" stroke="none" /><path d="M 101.44090949804482 79.04949213459386 l 3.669845443953103 -53.35874733471504 a74.48479861336736,74.48479861336736 0 0,0 1.2748640971222345,0.09868254392131484 l -4.585278535850572 53.287887023798675" fill="#38ff7f" stroke="none" /><path d="M 101.80034050326958 79.07731436759882 l 4.244921232681161 -49.33241924202478 a70.51471442452802,70.51471442452802 0 0,0 1.2051315140354397,0.11412720734966705 l -5.091152310101614 49.25228027916992" fill="#32ff2f" stroke="none" /><path d="M 102.15924093988457 79.11130261209362 l 5.1444483145296 -49.76787077577298 a71.03305217568587,71.03305217568587 0 0,0 1.2118377330602699,0.13578894564102706 l -5.998021949190666 49.672226069624976" fill="#30ff37" stroke="none" /><path d="M 102.51750503828377 79.15144685158666 l 5.908429078047435 -48.93026857307832 a70.28570499448996,70.28570499448996 0 0,0 1.1966046828367292,0.15492443305355824 l -6.747511582774956 48.82163254382437" fill="#36ff2e" stroke="none" /><line stroke="#e1ed5e" stroke-width="0.3" x1="143.13028292997686" x2="145.6673583964461" y1="26.7553504044142" y2="22.446841604673864" /><path d="M 143.63769802327073 25.89364864446614 a86.0,86.0 0 0,1 29.32050498858742,28.57503671076993" fill="none" id="id98" stroke="none" /><text fill="#e1ed5e" style="font-size:6.75px; font-family:Arial;" text-anchor="middle"><textPath startOffset="20.669276256404974" xlink:href="#id98">February</textPath></text><line stroke="#e1ed5e" stroke-width="0.3" x1="172.87174338648825" x2="177.1583165268699" y1="56.24261187166439" y2="53.66864786411523" /><path d="M 173.72905801456457 55.72781907015455 a86.0,86.0 0 0,1 12.242430191666344,42.057860355516425" fill="none" id="id99" stroke="none" /><text fill="#e1ed5e" style="font-size:6.75px; font-family:Arial;" text-anchor="middle"><textPath startOffset="22.145653131862474" xlink:href="#id99">March</textPath></text><path d="M 118.36410011445183 89.81374322990088 l 42.865010540724214 -23.776498772036653 a70.0176603125145,70.0176603125145 0 0,0 0.573993611040606,1.0560835940669553 l -43.266849501380165 23.037160344495096" fill="#3bff2e" stroke="none" /><path d="M 118.53625476483649 90.13048839642627 l 54.25381672302728 -28.88710154663237 a82.46495965004195,82.46495965004195 0 0,0 0.6545830174270844,1.2552492459224702 l -54.74170780942931 27.9515060576054" fill="#4aebff" stroke="none" /><path d="M 118.70294669586156 90.45014215332178 l 33.163337866479864 -16.933436612762307 a58.23638347053505,58.23638347053505 0 0,0 0.4469783496197812,0.8942561181656897 l -33.449136129311384 16.361648638432865" fill="#ffd714" stroke="none" /><path d="M 120.86939407059847 97.66154086499901 l 49.46327504772023 -5.542463139615754 a70.77282869297687,70.77282869297687 0 0,0 0.12492283033112138,1.208515062597443 l -49.551130270533015 4.69254355473538" fill="#30ff32" stroke="none" /><path d="M 120.9064616781168 98.02013634271609 l 62.7193850343504 -5.939590971851745 a84.0,84.0 0 0,0 0.12362550920903681,1.4367158104973519 l -62.812104166257186 4.862054113978731" fill="#4dd2ff" stroke="none" /><line stroke="#e1ed5e" stroke-width="0.3" x1="184.99686870605535" x2="189.99668451229388" y1="99.2704041080226" y2="99.22748670261217" /><path d="M 185.99683186730306 99.26182062694052 a86.0,86.0 0 0,1 -10.086455211305974,41.156179273409016" fill="none" id="id100" stroke="none" /><text fill="#e1ed5e" style="font-size:6.75px; font-family:Arial;" text-anchor="middle"><textPath startOffset="21.40746469413373" xlink:href="#id100">April</textPath></text><path d="M 120.99922638620191 99.81974689727618 l 46.743965686433945 -0.40124072637895997 a67.7456877392452,67.7456877392452 0 0,0 0.0,1.162987658205568 l -46.743965686433945 -0.40124072637895425" fill="#64ff29" stroke="none" /><path d="M 120.99922638620191 100.18025310272382 l 48.49741680161788 0.4162919953244682 a69.49920345176011,69.49920345176011 0 0,0 -0.020480979733299116,1.1929143915180913 l -48.483124390285916 -1.2487533028116304" fill="#44ff2d" stroke="none" /><line stroke="#e1ed5e" stroke-width="0.3" x1="174.33088141563837" x2="178.70328620479359" y1="141.23008692659167" y2="143.65538615756765" /><path d="M 175.20536237346943 141.71514677278685 a86.0,86.0 0 0,1 -30.301960400862466,31.631185727798858" fill="none" id="id101" stroke="none" /><text fill="#e1ed5e" style="font-size:6.75px; font-family:Arial;" text-anchor="middle"><textPath startOffset="22.145653131862474" xlink:href="#id101">May</textPath></text><line stroke="#e1ed5e" stroke-width="0.3" x1="143.1302829299769" x2="145.66735839644613" y1="173.24464959558577" y2="177.55315839532614" /><path d="M 143.63769802327073 174.10635135553383 a86.0,86.0 0 0,1 -40.68552437913181,11.842963189579606" fill="none" id="id102" stroke="none" /><text fill="#e1ed5e" style="font-size:6.75px; font-family:Arial;" text-anchor="middle"><textPath startOffset="21.407464694133747" xlink:href="#id102">June</textPath></text><line stroke="#e1ed5e" stroke-width="0.3" x1="101.45913802915013" x2="101.54496967792366" y1="184.9874750549273" y2="189.98673829345242" /><path d="M 101.47630435890484 185.9873277026323 a86.0,86.0 0 0,1 -42.54439059252881,-10.42667462771756" fill="none" id="id103" stroke="none" /><text fill="#e1ed5e" style="font-size:6.75px; font-family:Arial;" text-anchor="middle"><textPath startOffset="22.145653131862474" xlink:href="#id103">July</textPath></text><line stroke="#e1ed5e" stroke-width="0.3" x1="58.13341422392154" x2="55.67067388415222" y1="173.97424548756322" y2="178.32567169271397" /><path d="M 57.64086615596768 174.84453072859336 a86.0,86.0 0 0,1 -31.369924170532247,-30.572349798747897" fill="none" id="id104" stroke="none" /><text fill="#e1ed5e" style="font-size:6.75px; font-family:Arial;" text-anchor="middle"><textPath startOffset="22.145653131862474" xlink:href="#id104">August</textPath></text><line stroke="#e1ed5e" stroke-width="0.3" x1="26.387840678322732" x2="22.057713659400548" y1="142.50000000000003" y2="145.00000000000006" /><path d="M 25.521815274538298 143.00000000000003 a86.0,86.0 0 0,1 -11.493303480769221,-40.785679425670985" fill="none" id="id105" stroke="none" /><text fill="#e1ed5e" style="font-size:6.75px; font-family:Arial;" text-anchor="middle"><textPath startOffset="21.40746469413373" xlink:href="#id105">September</textPath></text><line stroke="#e1ed5e" stroke-width="0.3" x1="15.003131293944662" x2="10.003315487706104" y1="100.72959589197737" y2="100.7725132973878" /><path d="M 14.003168132696942 100.73817937305945 a86.0,86.0 0 0,1 10.791469493833604,-42.45332614584628" fill="none" id="id106" stroke="none" /><text fill="#e1ed5e" style="font-size:6.75px; font-family:Arial;" text-anchor="middle"><textPath startOffset="22.145653131862435" xlink:href="#id106">October</textPath></text><line stroke="#e1ed5e" stroke-width="0.3" x1="26.387840678322718" x2="22.05771365940052" y1="57.49999999999999" y2="54.99999999999999" /><path d="M 25.521815274538284 56.99999999999999 a86.0,86.0 0 0,1 29.574782752854787,-30.34633250058573" fill="none" id="id107" stroke="none" /><text fill="#e1ed5e" style="font-size:6.75px; font-family:Arial;" text-anchor="middle"><textPath startOffset="21.40746469413373" xlink:href="#id107">November</textPath></text><line stroke="#e1ed5e" stroke-width="0.3" x1="56.869717070023135" x2="54.33264160355391" y1="26.7553504044142" y2="22.446841604673864" /><path d="M 56.362301976729285 25.89364864446614 a86.0,86.0 0 0,1 42.16139366436587,-11.88097634709845" fill="none" id="id108" stroke="none" /><text fill="#e1ed5e" style="font-size:6.75px; font-family:Arial;" text-anchor="middle"><textPath startOffset="22.145653131862474" xlink:href="#id108">December</textPath></text></svg>